<?xml version="1.0" encoding="utf-8"?><svg fill="none" viewBox="0 0 580 590" xmlns="http://www.w3.org/2000/svg"><defs><clipPath id="cp-2320-2360"><rect height="2360" width="2320" y="0" x="0" /></clipPath><linearGradient id="null" gradientUnits="userSpaceOnUse" spreadMethod="pad" x2="25.17" y2="250.498" x1="-26.027" y1="250.498"><stop offset="0%" stop-color="#ea5350" /><stop offset="50%" stop-color="#e03e3c" /><stop offset="100%" stop-color="#d62929" /></linearGradient><linearGradient id="null" gradientUnits="userSpaceOnUse" spreadMethod="pad" x2="18.836" y2="352.005" x1="-20.407" y1="352.005"><stop offset="0%" stop-color="#ea5350" /><stop offset="50%" stop-color="#e03e3c" /><stop offset="100%" stop-color="#d62929" /></linearGradient><linearGradient id="null" gradientUnits="userSpaceOnUse" spreadMethod="pad" x2="28.038" y2="138.582" x1="-29.732" y1="138.582"><stop offset="0%" stop-color="#23286b" /><stop offset="50%" stop-color="#1c215d" /><stop offset="100%" stop-color="#151a4f" /></linearGradient><linearGradient id="null" gradientUnits="userSpaceOnUse" spreadMethod="pad" x2="-16.318" y2="-335.654" x1="15.768" y1="-327.204"><stop offset="0%" stop-color="#d6d7d8" /><stop offset="50%" stop-color="#e2e2e3" /><stop offset="100%" stop-color="#eeeeee" /></linearGradient><linearGradient id="null" gradientUnits="userSpaceOnUse" spreadMethod="pad" x2="-19.736" y2="-275.743" x1="6.113" y1="-276.03"><stop offset="0%" stop-color="#ffbeb6" /><stop offset="50%" stop-color="#f9afa9" /><stop offset="100%" stop-color="#f2a19c" /></linearGradient><linearGradient id="null" gradientUnits="userSpaceOnUse" spreadMethod="pad" x2="42.132" y2="-123.743" x1="-42.384" y1="-123.743"><stop offset="0%" stop-color="#428dfc" /><stop offset="50%" stop-color="#2f80ea" /><stop offset="100%" stop-color="#1d72d8" /></linearGradient><linearGradient id="null" gradientUnits="userSpaceOnUse" spreadMethod="pad" x2="34.909" y2="-55.849" x1="-36.596" y1="-55.849"><stop offset="0%" stop-color="#428dfc" /><stop offset="50%" stop-color="#2f80ea" /><stop offset="100%" stop-color="#1d72d8" /></linearGradient><linearGradient id="null" gradientUnits="userSpaceOnUse" spreadMethod="pad" x2="10.644" y2="-39.877" x1="-10.873" y1="-39.877"><stop offset="0%" stop-color="#428dfc" /><stop offset="50%" stop-color="#2f80ea" /><stop offset="100%" stop-color="#1d72d8" /></linearGradient><linearGradient id="null" gradientUnits="userSpaceOnUse" spreadMethod="pad" x2="12.461" y2="2.422" x1="-12.903" y1="2.422"><stop offset="0%" stop-color="#428dfc" /><stop offset="50%" stop-color="#2f80ea" /><stop offset="100%" stop-color="#1d72d8" /></linearGradient><linearGradient id="null" gradientUnits="userSpaceOnUse" spreadMethod="pad" x2="6.45" y2="-213.534" x1="-1.553" y1="-245.15"><stop offset="0%" stop-color="#428dfc" /><stop offset="50%" stop-color="#2f80ea" /><stop offset="100%" stop-color="#1d72d8" /></linearGradient><linearGradient id="null" gradientUnits="userSpaceOnUse" spreadMethod="pad" x2="-4.334" y2="-285.222" x1="3.241" y1="-221.869"><stop offset="0%" stop-color="#23286b" /><stop offset="50%" stop-color="#1c215d" /><stop offset="100%" stop-color="#151a4f" /></linearGradient><linearGradient id="null" gradientUnits="userSpaceOnUse" spreadMethod="pad" x2="28.172" y2="-340.081" x1="-17.917" y1="-317.148"><stop offset="0%" stop-color="#a1c3fc" /><stop offset="50%" stop-color="#8db6f6" /><stop offset="100%" stop-color="#78a9ef" /></linearGradient><linearGradient id="null" gradientUnits="userSpaceOnUse" spreadMethod="pad" x2="-4.719" y2="-377.912" x1="17.434" y1="-376.336"><stop offset="0%" stop-color="#ffbeb6" /><stop offset="50%" stop-color="#f9afa9" /><stop offset="100%" stop-color="#f2a19c" /></linearGradient><linearGradient id="null" gradientUnits="userSpaceOnUse" spreadMethod="pad" x2="-18.353" y2="-375.884" x1="9.14" y1="-375.699"><stop offset="0%" stop-color="#ffbeb6" /><stop offset="50%" stop-color="#f9afa9" /><stop offset="100%" stop-color="#f2a19c" /></linearGradient><linearGradient id="null" gradientUnits="userSpaceOnUse" spreadMethod="pad" x2="104.555" y2="102.406" x1="-105.954" y1="102.406"><stop offset="0%" stop-color="#23286b" /><stop offset="50%" stop-color="#1c215d" /><stop offset="100%" stop-color="#151a4f" /></linearGradient><linearGradient id="null" gradientUnits="userSpaceOnUse" spreadMethod="pad" x2="-125.957" y2="424.508" x1="122.468" y1="416.508"><stop offset="0%" stop-color="#23286b" /><stop offset="50%" stop-color="#1c215d" /><stop offset="100%" stop-color="#151a4f" /></linearGradient><linearGradient id="null" gradientUnits="userSpaceOnUse" spreadMethod="pad" x2="-225.171" y2="590.134" x1="419.844" y1="386.993"><stop offset="0%" stop-color="#a1c3fc" /><stop offset="34.8%" stop-color="#91b9f7" /><stop offset="69.6%" stop-color="#81aef2" /><stop offset="84.8%" stop-color="#7cacf0" /><stop offset="100%" stop-color="#78a9ef" /></linearGradient><linearGradient id="null" gradientUnits="userSpaceOnUse" spreadMethod="pad" x2="-234.627" y2="388.261" x1="86.48" y1="220.978"><stop offset="0%" stop-color="#a1c3fc" /><stop offset="34.8%" stop-color="#91b9f7" /><stop offset="69.6%" stop-color="#81aef2" /><stop offset="84.8%" stop-color="#7cacf0" /><stop offset="100%" stop-color="#78a9ef" /></linearGradient><linearGradient id="null" gradientUnits="userSpaceOnUse" spreadMethod="pad" x2="99.419" y2="-52.033" x1="-99.43" y1="-52.033"><stop offset="12.9%" stop-color="#428dfc" /><stop offset="56.39999999999999%" stop-color="#2f80ea" /><stop offset="99.9%" stop-color="#1d72d8" /></linearGradient><linearGradient id="null" gradientUnits="userSpaceOnUse" spreadMethod="pad" x2="122.457" y2="334.638" x1="-88.202" y1="334.638"><stop offset="12.9%" stop-color="#428dfc" /><stop offset="56.39999999999999%" stop-color="#2f80ea" /><stop offset="99.9%" stop-color="#1d72d8" /></linearGradient><linearGradient id="null" gradientUnits="userSpaceOnUse" spreadMethod="pad" x2="136.281" y2="24.76" x1="-117.05" y1="24.76"><stop offset="0%" stop-color="#a1c3fc" /><stop offset="34.8%" stop-color="#91b9f7" /><stop offset="69.6%" stop-color="#81aef2" /><stop offset="72.39999999999999%" stop-color="#80adf1" /><stop offset="75.3%" stop-color="#7fadf1" /><stop offset="87.6%" stop-color="#7babf0" /><stop offset="100%" stop-color="#78a9ef" /></linearGradient><linearGradient id="null" gradientUnits="userSpaceOnUse" spreadMethod="pad" x2="83.197" y2="334.639" x1="-24.301" y1="334.639"><stop offset="9%" stop-color="#eeeeee" /><stop offset="45.4%" stop-color="#e2e2e3" /><stop offset="81.8%" stop-color="#d6d7d8" /></linearGradient><linearGradient id="null" gradientUnits="userSpaceOnUse" spreadMethod="pad" x2="98.914" y2="29.985" x1="-102.753" y1="26.761"><stop offset="9%" stop-color="#eeeeee" /><stop offset="45.4%" stop-color="#e2e2e3" /><stop offset="81.8%" stop-color="#d6d7d8" /></linearGradient><linearGradient id="null" gradientUnits="userSpaceOnUse" spreadMethod="pad" x2="97.007" y2="102.48" x1="-97.658" y1="102.48"><stop offset="9%" stop-color="#eeeeee" /><stop offset="45.4%" stop-color="#e2e2e3" /><stop offset="81.8%" stop-color="#d6d7d8" /></linearGradient><linearGradient id="null" gradientUnits="userSpaceOnUse" spreadMethod="pad" x2="-84.671" y2="189.293" x1="55.77" y1="182.199"><stop offset="9%" stop-color="#eeeeee" /><stop offset="45.4%" stop-color="#e2e2e3" /><stop offset="81.8%" stop-color="#d6d7d8" /></linearGradient><linearGradient id="null" gradientUnits="userSpaceOnUse" spreadMethod="pad" x2="-173.96" y2="413.152" x1="132.728" y1="412.507"><stop offset="9%" stop-color="#eeeeee" /><stop offset="45.4%" stop-color="#e2e2e3" /><stop offset="81.8%" stop-color="#d6d7d8" /></linearGradient><linearGradient id="null" gradientUnits="userSpaceOnUse" spreadMethod="pad" x2="-32.23" y2="-28.128" x1="59.873" y1="-42.959"><stop offset="9%" stop-color="#eeeeee" /><stop offset="45.4%" stop-color="#e2e2e3" /><stop offset="81.8%" stop-color="#d6d7d8" /></linearGradient><linearGradient id="null" gradientUnits="userSpaceOnUse" spreadMethod="pad" x2="-162.99" y2="263.087" x1="86.999" y1="259.217"><stop offset="9%" stop-color="#eeeeee" /><stop offset="45.4%" stop-color="#e2e2e3" /><stop offset="81.8%" stop-color="#d6d7d8" /></linearGradient><linearGradient id="null" gradientUnits="userSpaceOnUse" spreadMethod="pad" x2="31.779" y2="-275.946" x1="-33.197" y1="-275.946"><stop offset="0%" stop-color="#eeeeee" /><stop offset="50%" stop-color="#e2e2e3" /><stop offset="100%" stop-color="#d6d7d8" /></linearGradient><linearGradient id="null" gradientUnits="userSpaceOnUse" spreadMethod="pad" x2="0.585" y2="-277.209" x1="-0.09" y1="-261.137"><stop offset="0%" stop-color="#ffbeb6" /><stop offset="50%" stop-color="#f9afa9" /><stop offset="100%" stop-color="#f2a19c" /></linearGradient><g id="comp_0"><g transform="matrix(4,0,0,4,915.723,1300.668)" id="3"><g id="3"><path stroke-linejoin="round" stroke-linecap="round" stroke-width="0.8" stroke-opacity="1" stroke="#ff0000" d="M-23.402,-3.332C-19.513,-2.811,-15.637,-2.19,-11.779,-1.472C-6.178,-0.429,-0.581,0.825,5.114,1.007C8.317,1.11,11.532,0.872,14.723,1.162C17.705,1.433,20.644,2.168,23.402,3.332" /></g></g><g id="body"><g transform="translate(759.806,1338.715)"><g transform="rotate(0)"><animateTransform repeatCount="indefinite" type="rotate" attributeName="transform" dur="4s" begin="0s" calcMode="spline" values="0; -8.955; 0" keyTimes="0; 0.5; 1" keySplines="0.333 0 0.667 1; 0.333 0 0.667 1" fill="freeze" /><g transform="scale(4,4) translate(-1043.811,-1170.75)"><g id="head2"><g transform="translate(996.501,1109.274)"><g transform="rotate(0)"><animateTransform repeatCount="indefinite" type="rotate" attributeName="transform" dur="4s" begin="0s" calcMode="spline" values="0; -4.415; 0" keyTimes="0; 0.55; 1" keySplines="0.333 0 0.667 1; 0.333 0 0.667 1" fill="freeze" /><g transform="scale(1,1) translate(-996.501,-1109.274)"><g transform="matrix(1,0,0,1,975.645,1119.858)" id="2"><g id="2"><path stroke-linejoin="miter" stroke-linecap="butt" stroke-width="0.5" stroke-opacity="1" stroke="#23286b" d="M-7.232,12.941C-3.329,10.841,0.053,7.781,2.532,4.107C5.886,-0.864,7.548,-6.955,7.182,-12.941" /></g></g></g></g></g></g></g></g></g></g><g id="legs"><g transform="translate(776.03,1333.065)"><g transform="rotate(0)"><animateTransform repeatCount="indefinite" type="rotate" attributeName="transform" dur="4s" begin="0s" calcMode="spline" values="0; 5.651; 0" keyTimes="0; 0.5; 1" keySplines="0.333 0 0.667 1; 0.333 0 0.667 1" fill="freeze" /><g transform="scale(4,4) translate(-1047.868,-1169.338)"><g id="path110" transform="matrix(1,0,0,1,1022.578,1328.631)"><path fill="#23286b" fill-opacity="1" d="M0,5.193C2.875,5.193,5.206,2.868,5.206,0C5.206,-2.868,2.875,-5.193,0,-5.193C-2.876,-5.193,-5.206,-2.868,-5.206,0C-5.206,2.868,-2.876,5.193,0,5.193Z" /></g><g id="path112" transform="matrix(1,0,0,1,1062.392,1372.929)"><path fill="#23286b" fill-opacity="1" d="M0,5.193C2.875,5.193,5.206,2.868,5.206,-0.001C5.206,-2.869,2.875,-5.193,0,-5.193C-2.875,-5.193,-5.206,-2.869,-5.206,-0.001C-5.206,2.868,-2.875,5.193,0,5.193Z" /></g><g id="path114" transform="matrix(1,0,0,1,1050.868,1329.235)"><path fill="#a1c3fc" fill-opacity="1" d="M45.163,50.972C37.282,57.92,25.135,57.173,18.169,49.312L-46.828,-24.045C-53.793,-31.907,-53.044,-44.023,-45.164,-50.973C-37.283,-57.921,-25.136,-57.173,-18.17,-49.313L46.827,24.044C53.793,31.906,53.043,44.023,45.163,50.972Z" /></g><g id="path116" transform="matrix(1,0,0,1,1052.027,1305.498)"><path fill="url(#null)" d="M16.667,-0.514C11.698,-3.349,5.883,-3.616,0.29,-4.835C-1.016,-5.12,-19.687,-8.022,-25.426,-12.665C-25.655,-4.479,-25.68,-1.111,-25.352,7.072C-25.334,7.516,-25.306,7.986,-25.049,8.347C-24.842,8.638,-24.513,8.817,-24.196,8.984C-22.297,9.991,-20.379,11.005,-18.31,11.59C-16.426,12.124,-14.461,12.289,-12.506,12.407C0.484,13.196,12.97,12.204,25.599,9.069C25.6,4.751,18.688,0.639,16.667,-0.514Z" /></g><g id="path118" transform="matrix(1,0,0,1,1075.407,1356.005)"><path fill="url(#null)" d="M-6.297,9.402C-2.214,11.825,1.904,14.266,6.392,15.817C10.882,17.369,13.89,18.119,18.459,16.824C20.043,16.146,19.949,12.773,18.538,9.395C15.908,3.095,10.591,-1.583,5.837,-6.49C2.911,-9.51,0.188,-12.727,-2.304,-16.112C-5.322,-14.223,-9.215,-14.867,-12.707,-15.578C-14.184,-15.879,-15.761,-16.233,-16.788,-17.333C-17.339,-17.923,-18.296,-16.591,-19.031,-16.929C-19.413,-11.216,-19.223,-7.63,-19.605,-1.916C-19.625,-1.622,-19.643,-1.32,-19.557,-1.038C-19.466,-0.738,-19.264,-0.487,-19.062,-0.247C-15.61,3.851,-10.907,6.665,-6.297,9.402Z" /></g><g id="path126" transform="matrix(1,0,0,1,1043.705,1175.627)"><path fill="#1d72d8" fill-opacity="1" d="M13.832,-9.43C11.557,-7.415,8.822,-5.964,6.57,-3.925C3.785,-1.403,1.858,1.905,0.111,5.224C-0.571,6.521,-1.239,7.836,-2.13,9C-3.19,10.388,-4.543,11.527,-5.932,12.59C-9.207,15.097,-12.807,17.269,-16.772,18.426C-17.28,18.574,-17.891,18.685,-18.289,18.339C-18.725,17.96,-18.645,17.275,-18.504,16.717C-17.723,13.615,-16.247,10.735,-14.726,7.917C-11.935,2.749,-8.924,-2.351,-5.04,-6.766C-1.156,-11.181,3.673,-14.909,9.265,-16.772C10.602,-17.217,11.972,-17.554,13.317,-17.977C14.144,-18.236,14.975,-18.532,15.842,-18.566C16.708,-18.6,17.638,-18.326,18.165,-17.642C18.676,-16.979,18.716,-16.047,18.464,-15.25C18.212,-14.453,17.707,-13.762,17.193,-13.102C16.17,-11.793,15.076,-10.533,13.832,-9.43Z" /></g><g id="path136" transform="matrix(1,0,0,1,1051.762,1245.879)"><path fill="#151a4f" fill-opacity="1" d="M-15.222,-55.384C-15.554,-55.136,-15.721,-54.805,-15.97,-54.473C-15.97,-53.895,-15.97,-53.398,-15.97,-52.901C-14.393,-41.231,-7.431,-30.605,-5.13,-21.965C-4.382,-19.151,-3.357,-12.263,-3.109,-9.367C-3.689,-6.883,-4.354,-4.483,-4.935,-2C-5.683,0.649,-6.678,2.965,-8.088,5.117C-12.984,12.401,-10.473,21.916,-15.804,27.712C-18.665,30.823,-24.62,40.003,-25.432,50.534C-17.467,53.761,-8.504,55.604,0.292,55.438C2.449,53.452,4.358,51.134,6.1,48.652C18.877,29.202,25.349,8.346,25.432,-14.001C23.855,-15.159,5.022,-29.478,2.449,-33.782C-0.041,-38.086,-1.7,-42.638,-2.447,-47.604C-3.523,-54.307,-14.807,-55.797,-15.222,-55.384Z" /></g><g id="path138" transform="matrix(1,0,0,1,1053.732,1249.582)"><path fill="url(#null)" d="M-5.492,-93.599C-7.547,-92.826,-30.383,-86.067,-28.807,-82.26C-27.396,-79.032,-26.401,-75.721,-25.737,-72.328C-23.247,-59.665,-16.361,-50.394,-5.16,-44.436C-4.662,-39.966,-3.915,-35.414,-3.003,-31.028C-2.09,-26.393,-1.011,-21.758,0.233,-17.206C1.81,-11.164,4.548,-6.281,8.365,-2.474C8.779,0.175,8.448,2.824,7.452,5.389C2.805,16.976,2.474,28.315,6.456,39.653C6.954,41.143,6.954,42.55,6.29,43.792C-0.265,57.779,-1.279,65.058,2.917,80.314C4.611,86.472,1.122,91.402,2.781,93.14C3.611,93.388,21.939,94.486,22.271,93.41C22.935,91.589,23.714,83.602,23.88,82.194C24.046,80.539,24.212,78.884,24.378,77.229C25.042,71.434,25.622,65.641,26.204,59.848C27.781,42.798,28.111,25.831,27.116,8.864C27.448,4.394,28.112,-4.709,28.195,-4.875C28.443,-9.51,28.73,-11.257,28.875,-15.66C28.961,-18.257,28.444,-23.58,28.112,-26.393C27.698,-31.442,26.535,-36.326,24.627,-41.043C18.902,-55.61,13.343,-70.177,8.116,-84.826C5.543,-91.862,1.063,-94.841,-5.492,-93.599Z" /></g><g id="path176" transform="matrix(1,0,0,1,1046.492,1190.299)"><path fill="#ffffff" fill-opacity="1" d="M-0.017,-11.442C-0.095,-11.36,-0.092,-11.28,-0.089,-11.201C-0.005,-11.124,0.074,-11.127,0.153,-11.13C0.23,-11.213,0.228,-11.292,0.224,-11.371C0.142,-11.448,0.022,-11.483,-0.017,-11.442ZM-2.158,-12.122C-2.277,-12.078,-2.312,-11.957,-2.269,-11.839C-2.225,-11.721,-2.103,-11.686,-1.944,-11.691C-1.826,-11.734,-1.791,-11.856,-1.796,-12.014C-1.919,-12.13,-2.04,-12.166,-2.158,-12.122ZM0.026,-2.558C-0.052,-2.476,-0.046,-2.317,0.037,-2.24C0.12,-2.163,0.241,-2.128,0.356,-2.252C0.433,-2.334,0.427,-2.493,0.383,-2.611C0.262,-2.646,0.102,-2.64,0.026,-2.558ZM-4.073,1.176C-4.151,1.259,-4.144,1.417,-4.062,1.494C-3.979,1.571,-3.82,1.565,-3.743,1.482C-3.666,1.399,-3.63,1.279,-3.754,1.164C-3.838,1.087,-3.996,1.094,-4.073,1.176ZM-0.808,3.13C-0.885,3.213,-0.879,3.371,-0.796,3.448C-0.713,3.525,-0.555,3.519,-0.477,3.437C-0.4,3.354,-0.406,3.196,-0.489,3.119C-0.571,3.042,-0.731,3.048,-0.808,3.13ZM2.633,-16.598C2.473,-16.592,2.396,-16.51,2.402,-16.351L2.633,-16.598ZM7.423,11.998C7.387,12.118,7.432,12.237,7.553,12.272C7.673,12.308,7.792,12.264,7.828,12.143C7.863,12.023,7.819,11.904,7.698,11.869C7.615,11.791,7.459,11.877,7.423,11.998ZM1.431,-8.945C1.313,-8.901,1.278,-8.78,1.321,-8.662C1.365,-8.544,1.487,-8.509,1.605,-8.552C1.723,-8.596,1.758,-8.717,1.715,-8.835C1.633,-8.911,1.511,-8.947,1.431,-8.945ZM-3.724,-6.806C-3.842,-6.763,-3.877,-6.641,-3.834,-6.524C-3.79,-6.406,-3.668,-6.37,-3.55,-6.414C-3.432,-6.457,-3.397,-6.578,-3.44,-6.696C-3.484,-6.815,-3.605,-6.85,-3.724,-6.806ZM-8.881,-4.748C-8.999,-4.704,-9.035,-4.583,-8.991,-4.465C-8.948,-4.347,-8.826,-4.312,-8.708,-4.355C-8.59,-4.399,-8.554,-4.52,-8.598,-4.638C-8.641,-4.756,-8.764,-4.791,-8.881,-4.748ZM-0.389,1.441C-0.507,1.484,-0.542,1.606,-0.499,1.723C-0.455,1.841,-0.334,1.877,-0.215,1.833C-0.097,1.79,-0.062,1.668,-0.105,1.551C-0.15,1.432,-0.271,1.397,-0.389,1.441ZM6.52,8.006C6.443,8.088,6.407,8.21,6.49,8.286C6.573,8.363,6.653,8.36,6.771,8.315C6.848,8.232,6.884,8.112,6.801,8.035C6.717,7.958,6.597,7.923,6.52,8.006ZM3.086,11.357C3.009,11.44,2.973,11.561,3.056,11.637C3.14,11.714,3.219,11.712,3.337,11.667C3.414,11.584,3.45,11.463,3.366,11.387C3.284,11.31,3.162,11.274,3.086,11.357ZM0.375,-7.233C0.377,-7.154,0.463,-6.996,0.581,-7.041C0.66,-7.044,0.779,-7.089,0.773,-7.247C0.77,-7.326,0.725,-7.444,0.567,-7.438C0.449,-7.395,0.372,-7.313,0.375,-7.233ZM-4.459,-7.257C-4.457,-7.178,-4.371,-7.021,-4.253,-7.065C-4.174,-7.068,-4.016,-7.153,-4.061,-7.271C-4.064,-7.35,-4.149,-7.507,-4.267,-7.463C-4.388,-7.499,-4.465,-7.417,-4.459,-7.257ZM8.625,12.114C8.548,12.196,8.554,12.355,8.636,12.432C8.719,12.509,8.878,12.503,8.955,12.42C9.032,12.339,9.026,12.179,8.944,12.102C8.862,12.025,8.703,12.031,8.625,12.114ZM5.099,16.225C5.022,16.308,5.028,16.467,5.111,16.544C5.194,16.621,5.352,16.615,5.43,16.532C5.507,16.45,5.501,16.291,5.418,16.214C5.336,16.137,5.177,16.142,5.099,16.225ZM1.228,-2.442C1.272,-2.324,1.355,-2.247,1.476,-2.212C1.594,-2.255,1.671,-2.338,1.707,-2.459C1.663,-2.577,1.58,-2.654,1.501,-2.65C1.299,-2.684,1.183,-2.56,1.228,-2.442ZM-4.189,-2.008C-4.146,-1.89,-4.063,-1.813,-3.942,-1.778C-3.824,-1.821,-3.746,-1.904,-3.711,-2.025C-3.754,-2.143,-3.838,-2.22,-3.917,-2.216C-4.118,-2.25,-4.194,-2.167,-4.189,-2.008ZM1.37,6.996C1.252,7.039,1.216,7.161,1.26,7.279C1.303,7.396,1.425,7.432,1.543,7.388C1.661,7.345,1.697,7.224,1.653,7.106C1.651,7.026,1.488,6.952,1.37,6.996ZM-3.413,9.48C-3.531,9.524,-3.567,9.645,-3.523,9.763C-3.48,9.881,-3.358,9.916,-3.24,9.873C-3.122,9.829,-3.086,9.708,-3.13,9.59C-3.135,9.43,-3.294,9.436,-3.413,9.48ZM-0.174,-11.357C-0.209,-11.236,-0.165,-11.118,-0.044,-11.082C0.077,-11.047,0.195,-11.091,0.231,-11.211C0.267,-11.332,0.222,-11.45,0.101,-11.486C-0.02,-11.521,-0.138,-11.478,-0.174,-11.357Z" /></g></g></g></g></g><g id="book"><g transform="translate(864.954,904.923)"><animateTransform repeatCount="indefinite" type="translate" attributeName="transform" dur="4s" begin="0s" calcMode="spline" values="864.954 904.923; 866.454 866.673; 899.954 879.673; 864.954 904.923" keyTimes="0; 0.325; 0.7; 1" keySplines="0.167 0.167 0.833 0.856; 0.167 0.193 0.833 0.799; 0.167 0.137 0.833 0.833" fill="freeze" /><g transform="rotate(-11.665)"><animateTransform repeatCount="indefinite" type="rotate" attributeName="transform" dur="4s" begin="0s" calcMode="spline" values="-11.665; -1.677; -11.665" keyTimes="0; 0.5; 1" keySplines="0.333 0 0.667 1; 0.333 0 0.667 1" fill="freeze" /><g transform="scale(4,4) translate(-1064.608,-1010.668)"><g id="path4" transform="matrix(1,0,0,1,1048.797,1002.075)"><path fill="#1d72d8" fill-opacity="1" d="M12.387,36.223C10.282,35.841,8.523,36.355,7.058,37.632L-12.387,-36.205C-11.3,-37.234,-9.562,-37.734,-7.058,-37.614L12.387,36.223Z" /></g><g id="path6" transform="matrix(1,0,0,1,1084.903,992.547)"><path fill="#428dfc" fill-opacity="1" d="M-43.396,-28.043L23.939,-45.844L43.396,28.044L-23.939,45.844L-43.396,-28.043Z" /></g><g id="path8" transform="matrix(1,0,0,1,1053.538,969.141)"><path fill="#81aef2" fill-opacity="1" d="M-4.607,-5.652L1.225,-7.194L4.607,5.652L-1.225,7.194L-4.607,-5.652Z" /></g><g id="path10" transform="matrix(1,0,0,1,1028.422,1020.234)"><path fill="#428dfc" fill-opacity="1" d="M-6.686,54.398L27.505,19.489L8.048,-54.398L-27.505,-23.584L-6.686,54.398Z" /></g><g id="path12" transform="matrix(1,0,0,1,1027.854,1020.463)"><path fill="#ffffff" fill-opacity="1" d="M24.932,23.123L-4.937,52.908L-24.933,-23.02L8.95,-51.969L12.942,-52.908L24.932,23.123Z" /></g><g id="path14" transform="matrix(1,0,0,1,1082.422,996.047)"><path fill="#d6d7d8" fill-opacity="1" d="M-41.541,-28.534L22.083,-45.354L41.541,28.534L-22.083,45.354L-41.541,-28.534Z" /></g><g id="path16" transform="matrix(1,0,0,1,1082.249,998.082)"><path fill="#eeeeee" fill-opacity="1" d="M-21.909,43.318L41.368,30.57L21.91,-43.318L-41.368,-30.57L-21.909,43.318Z" /></g><g id="path18" transform="matrix(1,0,0,1,1033.357,1019.721)"><path fill="#eeeeee" fill-opacity="1" d="M24.908,22.416L-4.96,52.202L-24.908,-23.545L7.43,-52.202L24.908,22.416Z" /></g><g id="path20" transform="matrix(1,0,0,1,1035.977,1019.412)"><path fill="#d6d7d8" fill-opacity="1" d="M24.363,21.988L-4.906,51.899L-24.363,-21.988L4.904,-51.899L24.363,21.988Z" /></g><g id="path22" transform="matrix(1,0,0,1,1037.232,1018.796)"><path fill="url(#null)" d="M23.108,22.604L-3.65,51.283L-23.108,-22.605L3.649,-51.283L23.108,22.604Z" /></g><g id="path24" transform="matrix(1,0,0,1,1015.825,1034.594)"><path fill="#d6d7d8" fill-opacity="1" d="M-12.902,-37.147L-7.07,-38.689L12.902,37.147L7.07,38.689L-12.902,-37.147Z" /></g><g id="path26" transform="matrix(1,0,0,1,1032.206,996.482)"><path fill="#d6d7d8" fill-opacity="1" d="M-8.217,11.329L9.465,-6.588L8.217,-11.329L-9.465,6.587L-8.217,11.329Z" /></g><g id="path28" transform="matrix(1,0,0,1,1034.843,1006.492)"><path fill="#d6d7d8" fill-opacity="1" d="M-8.216,11.329L9.465,-6.588L8.217,-11.329L-9.465,6.586L-8.216,11.329Z" /></g><g id="path30" transform="matrix(1,0,0,1,1037.479,1016.503)"><path fill="#d6d7d8" fill-opacity="1" d="M-8.217,11.329L9.465,-6.587L8.217,-11.329L-9.465,6.587L-8.217,11.329Z" /></g><g id="path32" transform="matrix(1,0,0,1,1040.115,1026.515)"><path fill="#d6d7d8" fill-opacity="1" d="M-8.217,11.329L9.465,-6.587L8.217,-11.329L-9.465,6.587L-8.217,11.329Z" /></g><g id="path34" transform="matrix(1,0,0,1,1042.751,1036.526)"><path fill="#d6d7d8" fill-opacity="1" d="M-8.216,11.329L9.465,-6.587L8.217,-11.329L-9.465,6.588L-8.216,11.329Z" /></g><g id="path36" transform="matrix(1,0,0,1,1045.387,1046.536)"><path fill="#d6d7d8" fill-opacity="1" d="M-8.216,11.329L9.465,-6.587L8.217,-11.329L-9.465,6.587L-8.216,11.329Z" /></g><g id="path38" transform="matrix(1,0,0,1,1076.59,978.209)"><path fill="#f6f6f6" fill-opacity="1" d="M-22.473,7.262L23.721,-2.52L22.473,-7.262L-23.721,2.52L-22.473,7.262Z" /></g><g id="path40" transform="matrix(1,0,0,1,1079.227,988.22)"><path fill="#f6f6f6" fill-opacity="1" d="M-22.473,7.262L23.722,-2.52L22.473,-7.262L-23.722,2.52L-22.473,7.262Z" /></g><g id="path42" transform="matrix(1,0,0,1,1081.863,998.232)"><path fill="#f6f6f6" fill-opacity="1" d="M-22.473,7.262L23.722,-2.52L22.474,-7.262L-23.722,2.52L-22.473,7.262Z" /></g><g id="path44" transform="matrix(1,0,0,1,1084.5,1008.242)"><path fill="#f6f6f6" fill-opacity="1" d="M-22.473,7.262L23.722,-2.521L22.473,-7.262L-23.722,2.52L-22.473,7.262Z" /></g><g id="path46" transform="matrix(1,0,0,1,1087.136,1018.253)"><path fill="#f6f6f6" fill-opacity="1" d="M-22.473,7.262L23.722,-2.52L22.473,-7.262L-23.722,2.521L-22.473,7.262Z" /></g><g id="path48" transform="matrix(1,0,0,1,1089.773,1028.265)"><path fill="#f6f6f6" fill-opacity="1" d="M-22.474,7.262L23.722,-2.52L22.473,-7.262L-23.722,2.519L-22.474,7.262Z" /></g><g id="path66" transform="matrix(1,0,0,1,1062.422,998.526)"><path fill="#a1c3fc" fill-opacity="1" d="M-1.654,1.28C-2.24,-0.295,-1.82,-1.94,-1.376,-3.681C-1.224,-4.279,-1.069,-4.891,-0.957,-5.503L1.941,5.503C1.585,5.122,1.199,4.758,0.816,4.399C-0.174,3.468,-1.197,2.505,-1.654,1.28Z" /></g><g id="path68" transform="matrix(1,0,0,1,1057.133,978.077)"><path fill="#a1c3fc" fill-opacity="1" d="M-1.668,2.439C-2.664,0.274,-2.278,-2.092,-1.868,-4.596C-1.727,-5.459,-1.586,-6.344,-1.505,-7.219L2.298,7.219C1.848,6.681,1.355,6.177,0.872,5.686C-0.139,4.659,-1.092,3.69,-1.668,2.439Z" /></g><g id="path70" transform="matrix(1,0,0,1,1066.692,1013.784)"><path fill="#a1c3fc" fill-opacity="1" d="M-1.438,-2.637C-1.379,-3.163,-1.243,-3.696,-1.112,-4.212C-1.071,-4.368,-1.032,-4.527,-0.993,-4.686L1.474,4.686C-0.21,2.402,-1.731,-0.036,-1.438,-2.637Z" /></g><g id="path72" transform="matrix(1,0,0,1,1048.575,969.477)"><path fill="#a1c3fc" fill-opacity="1" d="M1.72,2.122C1.659,3.161,1.483,4.237,1.313,5.277C1.283,5.459,1.254,5.642,1.225,5.825L-1.741,-5.434L-0.26,-5.825C1.146,-3.435,1.881,-0.639,1.72,2.122Z" /></g><g id="path74" transform="matrix(1,0,0,1,1058.947,1008.678)"><path fill="#a1c3fc" fill-opacity="1" d="M1.587,-0.41C1.698,0.437,1.487,1.263,1.264,2.138C1.129,2.665,0.99,3.21,0.929,3.758C0.89,4.102,0.883,4.441,0.9,4.777L-1.617,-4.777C-1.406,-4.572,-1.192,-4.369,-0.98,-4.169C0.237,-3.025,1.386,-1.945,1.587,-0.41Z" /></g><g id="path76" transform="matrix(1,0,0,1,1054.296,990.909)"><path fill="#a1c3fc" fill-opacity="1" d="M-1.572,-5.572C-0.909,-4.897,-0.222,-4.2,0.327,-3.429C1.582,-1.667,2.154,0.578,1.896,2.728C1.799,3.539,1.586,4.373,1.381,5.18C1.314,5.44,1.248,5.702,1.185,5.964L-1.957,-5.964C-1.829,-5.831,-1.701,-5.701,-1.572,-5.572Z" /></g><g id="path78" transform="matrix(1,0,0,1,1053.376,962.368)"><path fill="#ffffff" fill-opacity="1" d="M0.029,0.053C0.01,0.02,-0.011,-0.013,-0.03,-0.046L0.001,-0.053L0.029,0.053Z" /></g><g id="path80" transform="matrix(1,0,0,1,1062.35,998.467)"><path fill="#ffffff" fill-opacity="1" d="M0.652,4.712C-0.368,3.753,-1.422,2.763,-1.906,1.46C-2.53,-0.217,-2.078,-1.992,-1.64,-3.709C-1.435,-4.515,-1.222,-5.349,-1.125,-6.16C-1.118,-6.211,-1.119,-6.263,-1.113,-6.315L-0.884,-5.444C-0.996,-4.832,-1.151,-4.22,-1.303,-3.622C-1.747,-1.88,-2.167,-0.236,-1.581,1.339C-1.125,2.564,-0.101,3.526,0.89,4.457C1.272,4.817,1.658,5.18,2.015,5.561L2.213,6.315C1.765,5.76,1.216,5.242,0.652,4.712Z" /></g><g id="path82" transform="matrix(1,0,0,1,1057.074,977.956)"><path fill="#ffffff" fill-opacity="1" d="M0.683,6.051C-0.303,5.049,-1.324,4.011,-1.924,2.705C-2.965,0.444,-2.552,-2.086,-2.152,-4.532C-1.982,-5.573,-1.806,-6.65,-1.746,-7.688C-1.736,-7.855,-1.737,-8.023,-1.733,-8.191L-1.446,-7.1C-1.527,-6.225,-1.668,-5.338,-1.809,-4.476C-2.219,-1.971,-2.605,0.394,-1.609,2.559C-1.034,3.809,-0.08,4.779,0.93,5.805C1.413,6.296,1.906,6.8,2.356,7.338L2.58,8.191C2.032,7.422,1.346,6.725,0.683,6.051Z" /></g><g id="path84" transform="matrix(1,0,0,1,1054.377,990.924)"><path fill="#ffffff" fill-opacity="1" d="M1.814,2.714C2.073,0.563,1.501,-1.681,0.245,-3.444C-0.304,-4.215,-0.99,-4.912,-1.654,-5.586C-1.782,-5.716,-1.911,-5.848,-2.039,-5.98L-2.222,-6.675C-1.959,-6.393,-1.686,-6.115,-1.407,-5.831C-0.733,-5.146,-0.037,-4.44,0.527,-3.647C1.833,-1.814,2.427,0.519,2.159,2.755C2.059,3.589,1.844,4.434,1.635,5.251C1.512,5.733,1.392,6.207,1.294,6.675L1.103,5.949C1.166,5.687,1.232,5.425,1.299,5.165C1.504,4.359,1.717,3.525,1.814,2.714Z" /></g><g id="path86" transform="matrix(1,0,0,1,1049.489,969.852)"><path fill="#ffffff" fill-opacity="1" d="M1.152,1.768C1.091,2.825,0.914,3.91,0.742,4.959C0.669,5.408,0.597,5.852,0.532,6.292L0.311,5.451C0.34,5.268,0.37,5.085,0.399,4.903C0.569,3.862,0.745,2.785,0.806,1.747C0.967,-1.015,0.232,-3.81,-1.175,-6.201L-0.827,-6.292C0.582,-3.861,1.316,-1.029,1.152,1.768Z" /></g><g id="path88" transform="matrix(1,0,0,1,1066.571,1013.639)"><path fill="#ffffff" fill-opacity="1" d="M1.7,5.228L1.499,5.282C-0.297,2.872,-1.979,0.288,-1.661,-2.533C-1.6,-3.081,-1.461,-3.626,-1.326,-4.153C-1.228,-4.537,-1.134,-4.911,-1.067,-5.282L-0.872,-4.541C-0.91,-4.382,-0.95,-4.223,-0.99,-4.066C-1.122,-3.551,-1.258,-3.018,-1.316,-2.493C-1.61,0.109,-0.089,2.547,1.596,4.83C1.595,4.83,1.7,5.228,1.7,5.228Z" /></g><g id="path90" transform="matrix(1,0,0,1,1060.042,990.795)"><path fill="#a1c3fc" fill-opacity="1" d="M4.866,20.312C4.548,23.132,6.23,25.717,8.026,28.126L6.71,28.473C4.924,26.088,3.225,23.533,3.533,20.794C3.593,20.269,3.727,19.737,3.859,19.221C4.08,18.353,4.311,17.453,4.191,16.54C3.974,14.881,2.724,13.707,1.517,12.572C0.527,11.642,-0.496,10.679,-0.952,9.454C-1.538,7.879,-1.12,6.234,-0.676,4.493C-0.468,3.676,-0.252,2.831,-0.151,1.997C0.117,-0.239,-0.477,-2.571,-1.783,-4.404C-2.347,-5.197,-3.045,-5.905,-3.718,-6.589C-4.728,-7.615,-5.682,-8.584,-6.257,-9.835C-7.253,-12,-6.867,-14.366,-6.457,-16.87C-6.286,-17.92,-6.108,-19.006,-6.046,-20.062C-5.883,-22.86,-6.616,-25.691,-8.026,-28.122L-6.697,-28.473C-6.677,-28.44,-6.657,-28.408,-6.638,-28.375L-4.703,-21.029C-4.706,-20.861,-4.706,-20.694,-4.716,-20.526C-4.777,-19.487,-4.952,-18.411,-5.123,-17.371C-5.523,-14.925,-5.936,-12.395,-4.895,-10.133C-4.294,-8.827,-3.273,-7.79,-2.286,-6.788C-1.623,-6.114,-0.937,-5.417,-0.389,-4.646L1.193,1.357C1.187,1.408,1.186,1.46,1.18,1.512C1.083,2.323,0.87,3.158,0.665,3.964C0.227,5.681,-0.225,7.456,0.399,9.133C0.883,10.435,1.939,11.425,2.958,12.383C3.522,12.914,4.071,13.432,4.519,13.988L5.46,17.562C5.393,17.934,5.298,18.307,5.2,18.691C5.066,19.217,4.927,19.763,4.866,20.312Z" /></g><g id="path92" transform="matrix(1,0,0,1,1059.212,991.018)"><path fill="#ffffff" fill-opacity="1" d="M-2.885,-6.812C-2.212,-6.128,-1.516,-5.42,-0.952,-4.628C0.354,-2.795,0.948,-0.461,0.68,1.775C0.58,2.608,0.365,3.453,0.156,4.27C-0.288,6.012,-0.707,7.657,-0.121,9.232C0.334,10.457,1.359,11.419,2.349,12.35C3.557,13.485,4.805,14.659,5.022,16.318C5.142,17.231,4.912,18.129,4.691,18.998C4.559,19.513,4.423,20.046,4.365,20.571C4.056,23.309,5.756,25.865,7.542,28.251L7.181,28.346C5.384,25.937,3.702,23.352,4.02,20.532C4.082,19.983,4.221,19.438,4.355,18.912C4.578,18.037,4.789,17.21,4.679,16.363C4.477,14.828,3.329,13.748,2.112,12.604C1.092,11.646,0.038,10.655,-0.445,9.353C-1.07,7.676,-0.617,5.901,-0.18,4.184C0.026,3.378,0.238,2.544,0.335,1.733C0.594,-0.418,0.022,-2.662,-1.234,-4.425C-1.783,-5.196,-2.469,-5.894,-3.133,-6.568C-4.119,-7.57,-5.14,-8.607,-5.74,-9.913C-6.781,-12.174,-6.368,-14.704,-5.968,-17.15C-5.798,-18.191,-5.622,-19.268,-5.562,-20.306C-5.401,-23.068,-6.135,-25.863,-7.542,-28.254L-7.194,-28.346C-5.785,-25.915,-5.052,-23.083,-5.215,-20.286C-5.276,-19.229,-5.453,-18.144,-5.625,-17.094C-6.034,-14.589,-6.42,-12.224,-5.425,-10.059C-4.849,-8.808,-3.896,-7.838,-2.885,-6.812Z" /></g><g id="path94" transform="matrix(1,0,0,1,1058.366,991.238)"><path fill="#a1c3fc" fill-opacity="1" d="M-2.288,-6.788C-1.624,-6.114,-0.937,-5.416,-0.389,-4.645C0.867,-2.883,1.44,-0.638,1.182,1.512C1.084,2.323,0.871,3.157,0.665,3.964C0.228,5.68,-0.225,7.456,0.4,9.133C0.884,10.434,1.939,11.425,2.958,12.384C4.175,13.528,5.324,14.608,5.525,16.143C5.635,16.99,5.424,17.817,5.201,18.691C5.066,19.218,4.927,19.763,4.865,20.311C4.547,23.132,6.231,25.717,8.027,28.126L6.71,28.474C4.925,26.088,3.225,23.532,3.533,20.794C3.592,20.269,3.728,19.736,3.859,19.221C4.081,18.353,4.309,17.454,4.189,16.541C3.972,14.882,2.725,13.708,1.518,12.573C0.527,11.643,-0.498,10.68,-0.954,9.455C-1.54,7.88,-1.12,6.235,-0.676,4.494C-0.468,3.676,-0.252,2.831,-0.152,1.998C0.117,-0.238,-0.479,-2.572,-1.784,-4.404C-2.349,-5.198,-3.044,-5.905,-3.717,-6.589C-4.727,-7.615,-5.682,-8.584,-6.257,-9.835C-7.254,-12,-6.867,-14.367,-6.458,-16.871C-6.286,-17.921,-6.108,-19.005,-6.046,-20.062C-5.884,-22.86,-6.618,-25.691,-8.027,-28.122L-6.697,-28.474C-5.29,-26.083,-4.556,-23.288,-4.717,-20.526C-4.777,-19.487,-4.952,-18.41,-5.122,-17.37C-5.522,-14.924,-5.936,-12.395,-4.895,-10.133C-4.294,-8.827,-3.274,-7.79,-2.288,-6.788Z" /></g><g id="path96" transform="matrix(1,0,0,1,1057.534,991.462)"><path fill="#ffffff" fill-opacity="1" d="M-2.885,-6.812C-2.212,-6.128,-1.516,-5.421,-0.951,-4.628C0.354,-2.795,0.948,-0.462,0.68,1.774C0.58,2.608,0.365,3.453,0.156,4.27C-0.288,6.012,-0.707,7.657,-0.121,9.231C0.335,10.456,1.359,11.419,2.349,12.35C3.557,13.485,4.805,14.659,5.022,16.317C5.142,17.231,4.912,18.129,4.691,18.997C4.56,19.513,4.424,20.046,4.365,20.571C4.057,23.309,5.756,25.865,7.542,28.25L7.181,28.346C5.385,25.936,3.702,23.352,4.02,20.531C4.082,19.983,4.221,19.438,4.355,18.911C4.579,18.037,4.789,17.21,4.679,16.363C4.477,14.828,3.329,13.748,2.112,12.604C1.093,11.646,0.039,10.655,-0.445,9.353C-1.07,7.676,-0.617,5.9,-0.18,4.184C0.026,3.377,0.238,2.543,0.336,1.732C0.594,-0.418,0.022,-2.663,-1.234,-4.425C-1.782,-5.196,-2.469,-5.893,-3.133,-6.568C-4.119,-7.57,-5.14,-8.607,-5.74,-9.913C-6.781,-12.174,-6.368,-14.705,-5.968,-17.151C-5.798,-18.192,-5.622,-19.268,-5.562,-20.306C-5.4,-23.068,-6.135,-25.863,-7.542,-28.254L-7.194,-28.346C-5.785,-25.915,-5.052,-23.083,-5.214,-20.286C-5.276,-19.229,-5.453,-18.143,-5.625,-17.094C-6.034,-14.589,-6.42,-12.224,-5.424,-10.059C-4.849,-8.808,-3.896,-7.838,-2.885,-6.812Z" /></g><g id="path98" transform="matrix(1,0,0,1,1056.689,991.682)"><path fill="#a1c3fc" fill-opacity="1" d="M-2.287,-6.788C-1.624,-6.114,-0.937,-5.417,-0.389,-4.646C0.867,-2.883,1.439,-0.638,1.181,1.512C1.083,2.323,0.871,3.157,0.666,3.963C0.228,5.68,-0.225,7.456,0.4,9.132C0.884,10.434,1.939,11.425,2.957,12.384C4.174,13.527,5.323,14.608,5.524,16.142C5.635,16.99,5.424,17.816,5.201,18.691C5.066,19.218,4.927,19.762,4.866,20.311C4.548,23.131,6.23,25.716,8.026,28.125L6.709,28.473C4.924,26.088,3.224,23.532,3.532,20.794C3.591,20.268,3.727,19.736,3.858,19.22C4.08,18.352,4.309,17.454,4.19,16.54C3.972,14.882,2.724,13.708,1.517,12.573C1.161,12.238,0.802,11.9,0.465,11.546L-1.017,5.916C-0.919,5.449,-0.799,4.974,-0.676,4.493C-0.468,3.675,-0.253,2.831,-0.152,1.997C0.117,-0.239,-0.478,-2.572,-1.784,-4.405C-2.348,-5.199,-3.045,-5.906,-3.718,-6.59C-3.996,-6.873,-4.27,-7.151,-4.533,-7.433L-6.667,-15.537C-6.603,-15.977,-6.531,-16.421,-6.457,-16.87C-6.286,-17.92,-6.109,-19.006,-6.047,-20.062C-5.884,-22.86,-6.617,-25.691,-8.026,-28.122L-6.697,-28.473C-5.29,-26.082,-4.555,-23.288,-4.716,-20.526C-4.776,-19.487,-4.952,-18.41,-5.123,-17.37C-5.522,-14.924,-5.935,-12.395,-4.895,-10.133C-4.294,-8.827,-3.274,-7.79,-2.287,-6.788Z" /></g><g id="path100" transform="matrix(1,0,0,1,1060.292,1011.74)"><path fill="#ffffff" fill-opacity="1" d="M0.255,-0.837C0.124,-0.322,-0.012,0.211,-0.071,0.736C-0.377,3.455,1.363,6.034,3.137,8.407L2.744,8.511C1.825,7.278,0.938,5.999,0.332,4.666L-0.445,1.717C-0.462,1.38,-0.454,1.041,-0.415,0.697C-0.353,0.148,-0.215,-0.397,-0.081,-0.923C0.142,-1.798,0.353,-2.625,0.242,-3.472C0.041,-5.007,-1.108,-6.087,-2.324,-7.23C-2.537,-7.431,-2.751,-7.633,-2.961,-7.838L-3.137,-8.511C-2.8,-8.157,-2.442,-7.818,-2.087,-7.484C-0.879,-6.349,0.37,-5.175,0.587,-3.517C0.706,-2.604,0.477,-1.706,0.255,-0.837Z" /></g><g id="path102" transform="matrix(1,0,0,1,1061.83,1018.502)"><path fill="#a1c3fc" fill-opacity="1" d="M-0.103,2.096L-1.206,-2.096C-0.599,-0.763,0.287,0.516,1.206,1.749L-0.103,2.096Z" /></g></g></g></g></g><g id="hand"><g transform="translate(1864.921,694.168)"><g transform="rotate(0)"><animateTransform repeatCount="indefinite" type="rotate" attributeName="transform" dur="4s" begin="0s" calcMode="spline" values="0; 5.123; 4.141; 5.631; 0" keyTimes="0; 0.225; 0.542; 0.758; 1" keySplines="0.333 0 0.667 1; 0.333 0 0.667 1; 0.333 0 0.667 1; 0.333 0 0.667 1" fill="freeze" /><g transform="scale(4,4) translate(-1320.09,-1009.613)"><g transform="matrix(1,0,0,1,-0.001,0)" id="finger"><g id="path212" transform="matrix(1,0,0,1,1322.234,1031.897)"><path fill="#89b3f4" fill-opacity="1" d="M-7.437,-2.676C-8.186,-7.444,-9.622,-16.388,-9.104,-21.187C-8.586,-25.987,-6.907,-26.795,-3.135,-29.8C-1.012,-31.49,2.274,-32.433,4.29,-30.617C5.701,-29.346,7.328,-26.286,7.432,-24.388C8.479,-5.416,12.059,11.164,4.62,31.58C2.285,31.723,-0.086,31.199,-2.144,30.085C-2.493,29.896,-2.841,29.684,-3.082,29.369C-3.401,28.952,-3.492,28.409,-3.574,27.89C-4.65,21.037,-5.039,15.94,-6.116,9.088C-6.644,5.726,-6.908,0.684,-7.437,-2.676L-7.437,-2.676Z" /></g><g id="path214" transform="matrix(1,0,0,1,1293.887,1041.97)"><path fill="url(#null)" d="M-25.34,-9.54C-23.711,-11.242,-12.416,-12.026,-6.616,-11.454C-4.077,-11.203,-1.481,-11.669,1.022,-11.171C3.561,-10.667,5.797,-9.216,7.963,-7.794C12.2,-5.013,14.427,0.902,18.663,3.683C20.24,4.718,23.808,10.294,25.653,10.684C24.662,13.631,16.375,8.54,15.384,11.488C10.546,5.294,8.457,4.862,3.287,-1.059C1.664,-2.919,0.467,-5.275,-1.695,-6.464C-3.159,-7.268,-4.873,-7.424,-6.52,-7.688C-12.765,-8.689,-28.02,-6.741,-25.34,-9.54L-25.34,-9.54Z" /></g><g id="path216" transform="matrix(1,0,0,1,1312.419,1050.214)"><path fill="#89b3f4" fill-opacity="1" d="M2.554,9.311C4.256,11.213,5.983,13.136,8.11,14.544C10.237,15.952,12.384,14.847,14.469,13.108C16.067,7.192,11.423,3.065,6.313,-1.617C1.203,-6.3,-5.542,-11.427,-9.41,-15.185C-9.798,-12.584,-12.342,-9.67,-14.789,-8.716C-8.926,-1.336,-2.999,3.107,2.554,9.311Z" /></g></g></g></g></g></g><g transform="matrix(4,0,0,4,805.78,647.993)" id="path104"><g id="path104"><path fill="#1d72d8" fill-opacity="1" d="M0.556,1.924L1.919,-0.557L-0.556,-1.924L-1.919,0.557L0.556,1.924Z" /></g></g><g transform="matrix(4,0,0,4,879.672,717.714)" id="path106"><g id="path106"><path fill="#1d72d8" fill-opacity="1" d="M-1.912,-0.583L0.581,-1.916L1.912,0.584L-0.582,1.916L-1.912,-0.583Z" /></g></g><g transform="matrix(4,0,0,4,819.178,655.932)" id="path108"><g id="path108"><path fill="#e94a47" fill-opacity="1" d="M-0.504,1.521L-1.518,-0.505L0.504,-1.521L1.519,0.505L-0.504,1.521Z" /></g></g><g id="body"><g transform="translate(759.806,1338.715)"><g transform="rotate(0)"><animateTransform repeatCount="indefinite" type="rotate" attributeName="transform" dur="4s" begin="0s" calcMode="spline" values="0; -8.955; 0" keyTimes="0; 0.5; 1" keySplines="0.333 0 0.667 1; 0.333 0 0.667 1" fill="freeze" /><g transform="scale(4,4) translate(-1043.811,-1170.75)"><g id="han2"><g transform="translate(1020.944,1115.484)"><g transform="rotate(0)"><animateTransform repeatCount="indefinite" type="rotate" attributeName="transform" dur="4s" begin="0s" calcMode="spline" values="0; 4.568; 0" keyTimes="0; 0.5; 1" keySplines="0.333 0 0.667 1; 0.333 0 0.667 1" fill="freeze" /><g transform="scale(1,1) translate(-1020.944,-1115.484)"><g id="path128" transform="matrix(1,0,0,1,1095.827,1100.12)"><path fill="#ffbeb6" fill-opacity="1" d="M21.431,3.849C21.497,3.162,20.795,2.595,20.105,2.542C19.415,2.488,18.753,2.798,18.13,3.099C14.647,4.785,11.163,6.473,7.68,8.159C10.958,0.362,12.211,-5.009,12.608,-13.455C12.067,-15.952,11.996,-16.408,11.077,-15.187C10.721,-17.597,9.915,-16.593,9.239,-13.964C7.521,-8.447,4.506,-2.983,2.789,2.534C1.658,1.01,2.495,-1.148,3.486,-2.766C4.477,-4.383,6.482,-8.669,5.059,-8.033C1.496,-5.294,-0.564,-0.718,-0.249,3.757C-1.685,2.023,-4.237,-3.577,-4.418,-1.476C-3.353,2.148,-2.288,5.773,-1.223,9.398C-8.73,11.493,-14.539,12.777,-21.436,13.8C-17.57,16.481,-14.657,16.721,-9.954,16.484C-7.163,16.342,-2.064,14.674,0.725,14.499C6.981,14.105,12.264,10.386,17.406,6.81C18.731,5.888,20.273,4.974,21.431,3.849Z" /></g><g id="path130" transform="matrix(1,0,0,1,1057.384,1118.257)"><path fill="url(#null)" d="M8.272,-4.412C15.946,-5.185,23.093,-8.551,30.584,-10.387C31.473,-10.605,32.43,-10.798,33.286,-10.474C34.13,-10.154,34.713,-9.392,35.233,-8.655C38.151,-4.514,40.519,0.01,42.258,4.764C33.348,7.914,23.71,3.321,14.268,2.884C9.94,2.683,5.625,3.368,1.347,4.052C-4.235,4.944,-9.817,5.836,-15.398,6.727C-18.943,7.293,-22.771,8.006,-25.196,10.646C-28.713,3.393,-35.224,-3.291,-42.258,-7.252C-34.549,-10.631,-24.942,-9.156,-16.685,-7.513C-8.429,-5.87,-0.105,-3.568,8.272,-4.412Z" /></g></g></g></g></g></g></g></g></g><g id="body"><g transform="translate(759.806,1338.715)"><g transform="rotate(0)"><animateTransform repeatCount="indefinite" type="rotate" attributeName="transform" dur="4s" begin="0s" calcMode="spline" values="0; -8.955; 0" keyTimes="0; 0.5; 1" keySplines="0.333 0 0.667 1; 0.333 0 0.667 1" fill="freeze" /><g transform="scale(4,4) translate(-1043.811,-1170.75)"><g transform="matrix(1,0,0,1,1001.381,1111.279)" id="neck"><g id="path132"><path fill="#f5b2aa" fill-opacity="1" d="M-13.213,-0.653C-12.798,0.175,-12.134,0.755,-11.304,1.168C-9.784,1.128,-3.454,3.873,-2.509,4.81C-1.016,6.3,0.561,7.707,2.303,9.031C5.871,9.196,5.781,9.502,10.374,8.077C10.801,7.944,13.067,6.231,13.233,5.734C12.237,4.576,7.695,0.341,6.535,-0.57C2.25,-3.606,-0.596,-6.863,-4.335,-9.177C-4.417,-9.178,-13.71,-1.811,-13.213,-0.653Z" /></g></g></g></g></g></g><g id="body"><g transform="translate(759.806,1338.715)"><g transform="rotate(0)"><animateTransform repeatCount="indefinite" type="rotate" attributeName="transform" dur="4s" begin="0s" calcMode="spline" values="0; -8.955; 0" keyTimes="0; 0.5; 1" keySplines="0.333 0 0.667 1; 0.333 0 0.667 1" fill="freeze" /><g transform="scale(4,4) translate(-1043.811,-1170.75)"><g id="path140" transform="matrix(1,0,0,1,1026.596,1152.151)"><path fill="url(#null)" d="M-7.49,-42.062C-11.885,-41.734,-11.981,-41.452,-16.026,-39.123C-15.943,-39.041,-13.151,-37.123,-15.759,-34.73C-18.311,-32.388,-24.959,-33.024,-25.457,-32.693C-29.542,-30.554,-34.237,-28.518,-35.667,-25.972C-35.812,-25.712,-36.722,-12.124,-26.683,-4.178C-24.36,-2.276,-22.663,2.59,-20.008,4.163C-18.929,5.57,-17.768,6.977,-16.524,8.384C-15.28,9.625,-14.201,11.115,-13.454,12.77C-10.301,19.309,-7.812,26.013,-5.986,33.048C-5.156,36.028,-3.995,38.676,-2.418,41.159C-1.838,42.152,-1.007,42.317,-0.177,41.737C1.98,40.248,4.22,38.841,6.377,37.351C10.028,35.034,11.522,31.723,10.858,27.419C10.444,24.357,11.19,21.708,12.933,19.39C16.583,14.672,20.982,10.534,25.959,7.058C28.967,5.553,35.501,7.14,35.75,6.975C35.916,6.313,29.113,-4.86,26.043,-9.826C24.384,-12.31,22.64,-14.792,20.649,-17.027C17.413,-20.916,13.761,-24.475,10.029,-27.704C6.045,-34.572,-3.406,-42.368,-7.49,-42.062Z" /></g><g id="g5252" transform="matrix(1,0,0,1,0,0)"><g id="path120" transform="matrix(1,0,0,1,975.719,1147.157)"><path fill="#d6d7d8" fill-opacity="1" d="M-9.29,11.202L11.945,13.035L8.269,-10.184L-11.945,-13.036L-9.29,11.202Z" /></g><g id="path134" transform="matrix(1,0,0,1,1000.873,1160.123)"><path fill="url(#null)" d="M-8.105,-34.962C-13.978,-33.842,-8.473,-22.679,-7.062,-15.313C-3.992,0.909,-6.064,2.514,-2.388,21.049C-2.07,22.656,1.23,33.936,4.962,33.677C6.973,36.002,10.92,35.169,10.754,31.445C10.672,29.458,8.267,21.61,8.433,19.624C9.013,14.162,7.707,9.021,7.458,3.725C6.794,-7.863,6.808,-14.654,1.083,-23.758C1.082,-23.927,-5.789,-35.405,-8.105,-34.962Z" /></g><g id="path142" transform="matrix(1,0,0,1,986.663,1143.818)"><path fill="#e94a47" fill-opacity="1" d="M15.088,-19.167C10.442,-15.773,4.779,-11.621,0.132,-8.311C-1.145,-7.863,-3.142,-7.538,-3.391,-7.455C-10.776,-6.545,-21.87,-7.659,-21.87,-7.659C-21.87,-7.659,-17.21,18.836,-17.376,19.168C-16.878,19.168,-13.665,17.757,-12.314,17.76C-6.199,17.775,-3.043,17.049,2.02,18.208C2.835,18.318,4.731,17.89,6.307,17.393C11.105,13.829,17.307,9.235,21.87,6.587C20.544,2.613,15.752,-19.25,15.088,-19.167Z" /></g><g id="path150" transform="matrix(1,0,0,1,986.4,1157.937)"><path fill="#ffbeb6" fill-opacity="1" d="M-0.446,-0.231C0.001,-6.143,-0.881,-15.515,0.855,-16.076C2.645,-16.653,2.181,-12.425,1.8,-9.787C1.288,-6.245,1.368,-4.223,2.412,-1.004C2.485,-0.782,2.719,-0.52,2.933,-0.426C3.278,-0.272,3.934,0.631,4.528,0.865C6.16,1.51,7.708,1.588,9.457,1.44C8.243,6.162,8.05,11.27,8.429,16.13C5.522,14.123,3.191,11.412,0.57,9.044C-2.05,6.675,-3.105,4.759,-6.624,4.419C-8.243,4.264,-8.308,4.419,-9.457,3.732C-6.7,1.288,-3.576,2.712,0.343,5.202C-0.677,3.641,-0.587,1.629,-0.446,-0.231Z" /></g><g id="path152" transform="matrix(1,0,0,1,993.531,1154.864)"><path fill="#ffbeb6" fill-opacity="1" d="M-2.039,-7.86C-1.635,-8.188,-1.1,-7.827,-0.967,-7.326C-0.432,-5.299,-0.459,-5.768,-0.38,-3.673C-0.293,-1.401,-0.378,1.155,1.207,2.789C1.334,-0.543,2.065,-3.852,3.354,-6.928C4.34,-6.677,4.302,-5.275,4.038,-4.293C2.56,1.181,3.038,2.324,1.561,7.798C1.259,7.768,-1.008,12.194,-1.24,12.388C-2.567,10.73,-3.388,8.675,-3.567,6.561C-3.708,4.897,-4.304,4.882,-4.182,3.217C-3.963,0.242,-3.303,-4.415,-3.885,-7.342C-4.095,-8.397,-4.353,-9.51,-3.992,-10.524C-3.772,-11.145,-3.961,-12.152,-3.338,-12.371C-2.269,-12.748,-1.871,-6.732,-2.039,-7.86Z" /></g><g id="path154" transform="matrix(1,0,0,1,974.959,1149.709)"><path fill="#e94a47" fill-opacity="1" d="M5.73,-12.673C0.429,-12.251,-4.92,-12.428,-10.182,-13.196C-7.416,-4.649,-5.7,4.237,-5.086,13.196C-0.033,12.38,5.068,11.861,10.182,11.644C9.239,3.453,7.752,-4.676,5.73,-12.673Z" /></g><g id="path156" transform="matrix(1,0,0,1,998.903,1181.422)"><path fill="url(#null)" d="M-12.682,-13.621C-12.682,-13.621,-5.347,-14.317,-2.103,-15.998C-2.619,-15.484,-2.484,-14.625,-2.249,-13.935C-0.67,-9.287,3.518,-6.1,6.494,-2.193C7.963,-0.263,9.146,1.864,10.325,3.983C11.295,5.728,12.282,7.519,12.594,9.49C12.905,11.461,12.409,13.682,10.848,14.931C9.32,16.154,7.135,16.19,5.235,15.714C1.186,14.699,-2.127,11.681,-4.374,8.171C-6.621,4.661,-7.943,0.655,-9.241,-3.303C-10.359,-6.709,-11.476,-10.115,-12.594,-13.521C-11.239,-11.046,-12.682,-13.621,-12.682,-13.621Z" /></g></g></g></g></g></g><g id="bag"><g transform="translate(995.036,1340.133)"><animateTransform repeatCount="indefinite" type="translate" attributeName="transform" dur="4s" begin="0s" calcMode="spline" values="995.036 1340.133; 946.036 1323.133; 995.036 1340.133" keyTimes="0; 0.5; 1" keySplines="0.333 0 0.667 1; 0.333 0 0.667 1" fill="freeze" /><g transform="rotate(0)"><animateTransform repeatCount="indefinite" type="rotate" attributeName="transform" dur="4s" begin="0s" calcMode="spline" values="0; -46.703; 0" keyTimes="0; 0.5; 1" keySplines="0.333 0 0.667 1; 0.333 0 0.667 1" fill="freeze" /><g transform="scale(4,4) translate(-1102.619,-1171.105)"><g id="path166" transform="matrix(1,0,0,1,1115.914,1192.494)"><path fill="#1d72d8" fill-opacity="1" d="M11.334,27.268C17.243,25.119,19.189,17.637,18.664,11.385C17.237,-5.591,4.2,-19.734,-10.836,-27.812C-11.656,-21.925,-14.485,-16.333,-18.745,-12.178C-15.112,-4.006,-11.481,4.165,-7.848,12.337C-6.028,16.431,-4.137,20.63,-0.938,23.772C2.261,26.916,7.115,28.802,11.334,27.268Z" /></g><g id="path168" transform="matrix(1,0,0,1,1117.244,1179.411)"><path fill="#428dfc" fill-opacity="1" d="M-12.234,7.12C-14.523,4.849,-18.713,-1.092,-20.755,1.963C-18.499,-3.769,-13.47,-9.663,-12.588,-15.757C1.69,-11.056,17.569,-6.395,20.692,8.276C21.169,10.518,18.85,13.724,16.795,14.75C14.679,15.806,12.21,15.838,9.849,15.696C5.027,15.404,0.209,14.458,-4.204,12.496C-7.162,11.179,-9.934,9.4,-12.234,7.12Z" /></g><g id="path170" transform="matrix(1,0,0,1,1131.098,1187.179)"><path fill="#e94a47" fill-opacity="1" d="M2.348,-2.343L-2.348,-2.343L-2.348,2.343L2.348,2.343L2.348,-2.343Z" /></g><g id="path172" transform="matrix(1,0,0,1,1128.853,1201.641)"><path fill="#23286b" fill-opacity="1" d="M2.348,-2.342L-2.348,-2.342L-2.348,2.342L2.348,2.342L2.348,-2.342Z" /></g></g></g></g></g><g id="body"><g transform="translate(759.806,1338.715)"><g transform="rotate(0)"><animateTransform repeatCount="indefinite" type="rotate" attributeName="transform" dur="4s" begin="0s" calcMode="spline" values="0; -8.955; 0" keyTimes="0; 0.5; 1" keySplines="0.333 0 0.667 1; 0.333 0 0.667 1" fill="freeze" /><g transform="scale(4,4) translate(-1043.811,-1170.75)"><g id="head2"><g transform="translate(996.501,1109.274)"><g transform="rotate(0)"><animateTransform repeatCount="indefinite" type="rotate" attributeName="transform" dur="4s" begin="0s" calcMode="spline" values="0; -4.415; 0" keyTimes="0; 0.55; 1" keySplines="0.333 0 0.667 1; 0.333 0 0.667 1" fill="freeze" /><g transform="scale(1,1) translate(-996.501,-1109.274)"><g transform="matrix(1,0,0,1,1008.794,1100.393)" id="1"><g id="1"><path stroke-linejoin="round" stroke-linecap="round" stroke-width="0.6" stroke-opacity="1" stroke="#23286b" d="M-12.11,-2.16C-10.174,-1.283,-7.622,2.429,-1.37,3.101C3.722,3.367,1.471,-1.446,5.753,-3.036C7.079,-3.702,10.16,-3.602,12.11,-1.283" /></g></g></g></g></g></g></g></g></g></g><g id="body"><g transform="translate(759.806,1338.715)"><g transform="rotate(0)"><animateTransform repeatCount="indefinite" type="rotate" attributeName="transform" dur="4s" begin="0s" calcMode="spline" values="0; -8.955; 0" keyTimes="0; 0.5; 1" keySplines="0.333 0 0.667 1; 0.333 0 0.667 1" fill="freeze" /><g transform="scale(4,4) translate(-1043.811,-1170.75)"><g id="head2"><g transform="translate(996.501,1109.274)"><g transform="rotate(0)"><animateTransform repeatCount="indefinite" type="rotate" attributeName="transform" dur="4s" begin="0s" calcMode="spline" values="0; -4.415; 0" keyTimes="0; 0.55; 1" keySplines="0.333 0 0.667 1; 0.333 0 0.667 1" fill="freeze" /><g transform="scale(1,1) translate(-996.501,-1109.274)"><g id="path144" transform="matrix(1,0,0,1,988.301,1101.784)"><path fill="#ffbeb6" fill-opacity="1" d="M5.842,-9.035C3.27,-11.021,0.282,-12.097,-3.037,-12.262C-3.451,-12.18,-3.867,-12.015,-4.199,-11.849C-4.281,-11.932,-4.281,-11.932,-4.281,-11.932C-4.613,-11.849,-5.028,-11.766,-5.36,-11.601C-5.692,-11.353,-6.024,-11.104,-6.273,-10.856C-6.771,-10.608,-7.186,-10.359,-7.517,-10.028C-10.338,-7.711,-11.666,-5.062,-11.583,-2.165C-11.749,-1.835,-11.915,-1.421,-11.915,-1.007C-12.081,1.558,-11.168,3.794,-9.176,5.698C-8.346,6.36,-7.599,7.022,-6.771,7.519C-3.618,10.913,0.365,12.485,5.094,12.237C6.422,12.237,7.5,11.74,8.413,10.83C12.146,7.022,12.894,2.554,10.736,-2.579C10.156,-3.737,9.575,-4.896,8.829,-5.973C7.999,-7.214,7.002,-8.207,5.842,-9.035Z" /></g><g id="path146" transform="matrix(1,0,0,1,984.559,1110.916)"><path fill="#e94a47" fill-opacity="1" d="M-0.042,-3.212C-0.969,-3.212,-1.817,-2.894,-2.493,-2.296C-3.191,-1.598,-3.552,-0.835,-3.552,-0.041C-3.552,0.832,-3.195,1.59,-2.493,2.213C-1.823,2.88,-1.002,3.211,-0.042,3.211C1.06,3.211,1.888,2.898,2.563,2.225C3.234,1.63,3.552,0.892,3.552,-0.042C3.552,-0.904,3.23,-1.645,2.563,-2.309C1.881,-2.912,1.025,-3.212,-0.042,-3.212ZM-0.042,3.823C-1.172,3.823,-2.138,3.431,-2.913,2.659C-3.74,1.927,-4.165,1.014,-4.165,-0.041C-4.165,-1.002,-3.743,-1.912,-2.913,-2.74C-2.11,-3.452,-1.122,-3.823,-0.042,-3.823C1.182,-3.823,2.171,-3.473,2.983,-2.752C3.772,-1.966,4.165,-1.059,4.165,-0.041C4.165,1.078,3.779,1.965,2.983,2.671C2.211,3.442,1.217,3.823,-0.042,3.823Z" /></g><g id="path148" transform="matrix(1,0,0,1,991.943,1103.136)"><path fill="#e94a47" fill-opacity="1" d="M0.042,-3.211C-0.968,-3.211,-1.798,-2.911,-2.493,-2.295C-3.192,-1.598,-3.553,-0.834,-3.553,-0.041C-3.553,0.832,-3.196,1.591,-2.493,2.214C-1.815,2.89,-0.99,3.212,0.042,3.212C1.074,3.212,1.897,2.89,2.564,2.226C3.233,1.631,3.551,0.894,3.551,-0.041C3.551,-0.904,3.229,-1.645,2.564,-2.309C1.881,-2.913,1.054,-3.211,0.042,-3.211ZM0.042,3.823C-1.161,3.823,-2.129,3.442,-2.913,2.659C-3.74,1.927,-4.165,1.015,-4.165,-0.041C-4.165,-1.004,-3.743,-1.912,-2.913,-2.74C-2.099,-3.463,-1.109,-3.823,0.042,-3.823C1.192,-3.823,2.181,-3.463,2.982,-2.753C3.77,-1.966,4.165,-1.059,4.165,-0.041C4.165,1.079,3.778,1.965,2.982,2.671C2.21,3.442,1.245,3.823,0.042,3.823Z" /></g><g id="path158" transform="matrix(1,0,0,1,965.215,1103.57)"><path fill="#23286b" fill-opacity="1" d="M9.599,-16.823C7.395,-15.719,5.379,-14.24,3.667,-12.469C1.772,-10.509,0.255,-8.203,-1.714,-6.316C-5.372,-2.808,-10.551,-0.938,-15.612,-1.298C-19.185,-1.554,-23.328,-2.689,-25.949,-0.253C-23.85,-0.007,-22.528,2.227,-22.278,4.321C-22.028,6.414,-22.508,8.535,-22.355,10.638C-22.121,13.855,-20.316,16.922,-17.614,18.694C-18.2,15.727,-15.902,12.886,-13.25,11.423C-10.598,9.959,-7.536,9.389,-4.822,8.042C1.136,5.087,4.61,-1.099,8.832,-6.23C13.054,-11.361,19.642,-15.946,25.949,-13.83C24.472,-16.509,21.525,-18.201,18.485,-18.593C15.445,-18.986,12.339,-18.194,9.599,-16.823Z" /></g><g id="path160" transform="matrix(1,0,0,1,971.978,1108.024)"><path fill="#23286b" fill-opacity="1" d="M21.441,-15.917C18.694,-17.194,15.379,-15.699,13.272,-13.528C8.756,-8.873,7.984,-1.895,6.784,4.472C5.582,10.838,3.043,17.879,-2.962,20.342C-5.218,21.268,-8.062,21.659,-9.182,23.82C-9.731,21.42,-11.841,19.617,-14.155,18.757C-16.469,17.898,-18.989,17.823,-21.457,17.758C-22.342,15.518,-21.796,12.785,-20.118,11.054C-17.923,8.79,-14.424,8.47,-11.696,6.884C-7.226,4.285,-5.491,-1.209,-4.38,-6.249C-3.27,-11.29,-2.198,-16.778,1.667,-20.21C4.602,-22.818,8.696,-23.753,12.625,-23.816C15.016,-23.854,17.535,-23.561,19.48,-22.174C21.423,-20.788,22.547,-18.032,21.441,-15.917Z" /></g><g id="path174" transform="matrix(1,0,0,1,987.955,1106.776)"><path fill="#e94a47" fill-opacity="1" d="M-1.055,1.481C-1.076,1.481,-1.095,1.481,-1.116,1.481C-1.285,1.476,-1.419,1.335,-1.413,1.167C-1.409,0.998,-1.261,0.878,-1.098,0.87C-0.596,0.895,-0.107,0.661,0.271,0.257C0.649,-0.146,0.84,-0.659,0.793,-1.146C0.777,-1.314,0.9,-1.464,1.069,-1.479C1.237,-1.501,1.387,-1.373,1.403,-1.204C1.466,-0.541,1.216,0.144,0.718,0.675C0.235,1.19,-0.408,1.481,-1.055,1.481Z" /></g></g></g></g></g></g></g></g></g><g transform="matrix(4,0,0,4,-3415.441,-3344.284)" id="legs 2"><g id="path218" transform="matrix(1,0,0,1,1196.125,1127.646)"><path fill="#f7931e" fill-opacity="1" d="M1.044,-8.619C6.525,-9.67,25.893,-8.623,25.893,-8.623C25.893,-8.623,28.069,2.01,28.014,9.01C19.84,9.021,11.665,9.032,3.49,9.043C-10.249,9.061,-13.498,9.191,-28.004,8.895C-28.313,5.629,-21.808,-0.37,-9.95,-3.172C-7.329,-3.79,-1.6,-8.112,1.044,-8.619Z" /></g><g id="path220" transform="matrix(1,0,0,1,1182.148,1127.646)"><path fill="#fbb03b" fill-opacity="1" d="M1.044,-8.619C6.525,-9.67,25.893,-8.623,25.893,-8.623C25.893,-8.623,28.069,2.01,28.014,9.01C19.839,9.021,11.665,9.032,3.49,9.043C-10.249,9.061,-13.498,9.191,-28.004,8.895C-28.313,5.629,-21.808,-0.37,-9.95,-3.172C-7.33,-3.79,-1.601,-8.112,1.044,-8.619Z" /></g><g id="path222" transform="matrix(1,0,0,1,1276.473,1076.644)"><path fill="#151a4f" fill-opacity="1" d="M-13.238,-3.517C3.129,5.469,16.217,20.587,34.075,26.025C47.473,30.105,62.567,27.987,74.473,20.603C80.602,16.802,86.149,11.253,87.686,4.199C87.839,3.498,87.947,2.749,87.691,2.079C87.379,1.259,86.593,0.733,85.849,0.268C79.835,-3.491,73.554,-6.822,67.07,-9.69C63.829,-8.598,62.987,-3.767,59.692,-2.851C57.772,-2.316,55.81,-3.357,54.041,-4.276C42.691,-10.173,-2.449,-50.527,-14.656,-41.621C-46.106,-18.677,-62.995,6.019,-87.844,42.577C-77.943,43.16,-54.259,42.771,-54.259,42.771C-54.259,42.771,-48.942,38.35,-42.611,31.103C-37.176,24.881,-38.271,17.408,-34.069,15.547C-29.868,13.686,-22.554,6.834,-21.242,2.425C-20.45,-0.237,-20.144,-3.792,-17.471,-4.535C-16.037,-4.932,-14.545,-4.234,-13.238,-3.517Z" /></g><g id="path224" transform="matrix(1,0,0,1,1350.553,1055.85)"><path fill="url(#null)" d="M0.016,-30.911C1.55,-30.975,3.174,-30.825,4.44,-29.954C5.484,-29.236,6.168,-28.111,6.789,-27.005C15.33,-11.816,18.274,6.45,14.942,23.56C14.683,24.886,14.362,26.261,13.496,27.297C12.562,28.413,11.132,28.97,9.741,29.396C5.497,30.695,1.006,31.174,-3.416,30.802C-6.05,30.58,-8.969,29.854,-10.341,27.59C-11.738,25.282,-10.984,22.328,-10.182,19.751C-7.995,12.724,-5.719,5.542,-6.012,-1.813C-6.307,-9.167,-9.721,-16.86,-16.282,-20.174C-13.315,-26.336,-6.806,-30.623,0.016,-30.911Z" /></g><g id="path226" transform="matrix(1,0,0,1,1274.759,1077.131)"><path fill="url(#null)" d="M71.097,32.964C67.552,34.404,63.642,34.678,59.82,34.547C46.776,34.1,33.94,28.976,24.163,20.316C11.8,9.364,0.818,-7.487,-14.773,-12.911C-25.284,-16.133,-21.717,-2.418,-32.576,9.005C-36.866,13.516,-43.181,13.936,-46.733,18.243C-50.809,23.185,-48.064,20.89,-51.452,29.2C-52.441,31.626,-65.148,42.05,-66.717,42.09C-77.73,42.371,-80.75,42.521,-92.537,42.232C-81.278,15.644,-55.314,-10.977,-35.946,-38.919C-34.87,-40.47,-33.189,-41.633,-31.372,-42.141C-30.146,-42.484,-28.847,-42.401,-27.579,-42.297C2.803,-39.834,32.354,-27.912,55.959,-8.596C57.943,-6.973,59.923,-6.198,61.346,-3.606C62.391,-1.701,61.576,1.896,61.087,5.08C60.599,8.264,60.213,9.969,63.288,10.914C62.074,5.295,62.641,-3.994,62.641,-3.994C62.641,-3.994,66.554,-8.54,68.488,-11.394C76.097,-7.35,84.586,-7.028,92.537,-10.347C92.537,1.969,89.632,8.383,85.548,16.926C82.37,23.576,77.919,30.194,71.097,32.964Z" /></g><g id="path228" transform="matrix(1,0,0,1,1336.917,1023.852)"><path fill="url(#null)" d="M-24.582,-27.395C-22.904,-29.661,-14.699,-28.181,-11.375,-26.299C1.019,-19.283,10.097,-11.502,18.123,0.276C20.837,4.258,22.808,7.642,25.732,14.849C19.191,15.276,17.307,24.135,-0.553,28.542C-3.918,17.134,-7.164,10.808,-14.79,4.171C-20.519,-0.815,-21.146,-1.944,-23.591,-11.127C-25.143,-16.961,-26.966,-21.072,-24.582,-27.395Z" /></g></g><g transform="matrix(4,0,0,4,-3415.441,-3344.287)" id="neck"><g id="path206" transform="matrix(1,0,0,1,1311.379,1002.974)"><path fill="#1d72d8" fill-opacity="1" d="M-0.406,-10.511C-0.948,-10.821,-1.042,-9.619,-1.134,-9.067C-1.754,-5.389,-2.264,-1.638,-3.767,1.775C-4.065,2.452,-4.404,3.231,-4.086,3.9C-3.965,4.153,-3.762,4.355,-3.566,4.555C-1.626,6.546,0.465,7.977,1.495,10.562C2.306,7.984,3.027,5.94,3.437,3.27C3.922,0.108,4.121,-0.825,4.213,-4.022C4.231,-4.635,3.75,-6.997,3.519,-7.564C3.287,-8.132,0.596,-9.834,-0.406,-10.511Z" /></g><g id="path208" transform="matrix(1,0,0,1,1304.566,992.664)"><path fill="url(#null)" d="M6.709,10.472C9.276,9.391,11.51,6.801,11.042,4.05C10.976,3.661,10.85,3.265,10.575,2.982C10.262,2.661,9.807,2.532,9.377,2.406C2.192,0.308,-4.199,-4.411,-8.324,-10.667C-9.636,-6.321,-10.567,-1.862,-11.104,2.646C-10.094,3.925,-8.313,4.198,-6.737,4.608C-2.474,5.716,1.182,8.39,5.106,10.393C5.36,10.523,5.624,10.652,5.908,10.666C6.184,10.679,6.454,10.579,6.709,10.472Z" /></g><g id="path284" transform="matrix(1,0,0,1,1312.621,1003.648)"><path fill="#428dfc" fill-opacity="1" d="M-1.623,-11.167C-0.724,-8.32,-3.801,0.684,-3.867,1.007C-3.931,1.318,0.441,11.167,0.441,11.167C0.441,11.167,2.203,5.502,2.753,2.642C3.42,-0.821,4.618,-4.873,3.219,-8.11C3.128,-8.319,-1.106,-10.782,-1.623,-11.167Z" /></g></g><g id="head"><g transform="translate(1797.075,635.951)"><g transform="rotate(0)"><animateTransform repeatCount="indefinite" type="rotate" attributeName="transform" dur="4s" begin="0s" calcMode="spline" values="0; -9.56; 4.706; 0" keyTimes="0; 0.2; 0.683; 1" keySplines="0.333 0 0.667 1; 0.333 0 0.667 1; 0.333 0 0.667 1" fill="freeze" /><g transform="scale(4,4) translate(-1303.129,-995.059)"><g id="hear"><g transform="translate(1295.834,970.936)"><g transform="rotate(0)"><animateTransform repeatCount="indefinite" type="rotate" attributeName="transform" dur="4s" begin="0s" calcMode="spline" values="0; 15.864; 9.435; 0" keyTimes="0; 0.2; 0.683; 1" keySplines="0.333 0 0.667 1; 0.333 0 0.667 1; 0.333 0 0.667 1" fill="freeze" /><g transform="scale(1,1) translate(-1295.834,-970.936)"><g id="path238" transform="matrix(1,0,0,1,1307.262,960.804)"><path fill="#428dfc" fill-opacity="1" d="M-12.02,9.707C-13.983,4.921,-11.957,-2.021,-8.369,-5.743C-4.782,-9.466,0.448,-11.285,5.606,-11.559C7.23,-11.645,8.923,-11.575,10.373,-10.839C11.822,-10.102,12.962,-8.546,12.763,-6.929C10.8,-7.934,8.303,-7.336,6.59,-5.945C4.877,-4.555,3.825,-2.511,3.04,-0.448C2.413,1.201,1.904,2.945,0.796,4.318C-0.443,5.852,-2.286,6.746,-4.085,7.549C-6.41,8.587,-8.912,10.808,-11.157,9.607C-11.397,13.586,-11.767,10.469,-12.02,9.707L-12.02,9.707Z" /></g><g id="path240" transform="matrix(1,0,0,1,1300.604,957.963)"><path fill="#428dfc" fill-opacity="1" d="M-5.445,11.983C-5.557,11.983,-5.656,11.901,-5.675,11.786C-6.364,7.766,-6.414,3.682,-5.826,-0.356C-5.266,-4.206,-4.192,-6.938,-2.447,-8.955C-0.182,-11.572,3.326,-12.646,6.083,-11.566C6.204,-11.518,6.264,-11.382,6.217,-11.261C6.169,-11.14,6.033,-11.08,5.913,-11.127C3.336,-12.136,0.046,-11.116,-2.091,-8.646C-3.775,-6.701,-4.814,-4.045,-5.361,-0.288C-5.941,3.701,-5.891,7.737,-5.212,11.707C-5.19,11.835,-5.276,11.956,-5.404,11.978C-5.418,11.981,-5.432,11.983,-5.445,11.983L-5.445,11.983Z" /></g></g></g></g></g></g></g></g></g><g id="head"><g transform="translate(1797.075,635.951)"><g transform="rotate(0)"><animateTransform repeatCount="indefinite" type="rotate" attributeName="transform" dur="4s" begin="0s" calcMode="spline" values="0; -9.56; 4.706; 0" keyTimes="0; 0.2; 0.683; 1" keySplines="0.333 0 0.667 1; 0.333 0 0.667 1; 0.333 0 0.667 1" fill="freeze" /><g transform="scale(4,4) translate(-1303.129,-995.059)"><g id="path210" transform="matrix(1,0,0,1,1290.86,992.301)"><path fill="url(#null)" d="M13.728,-2.534C13.569,-6.575,12.516,-10.98,9.246,-13.352C7.17,-14.858,4.472,-15.303,1.921,-15.06C-0.63,-14.817,-3.075,-13.942,-5.462,-13.008C-8.645,-11.763,-12.089,-10.09,-13.302,-6.89C-14.116,-4.739,-13.726,-2.316,-13.007,-0.13C-11.686,3.884,-9.25,7.569,-5.885,10.119C-5.002,10.787,-4.054,11.372,-3.06,11.866C-1.971,13.073,-1.533,13.411,-0.376,14.698C0.681,15.875,0.997,14.326,1.41,13.374C2.916,13.658,4.457,13.735,5.984,13.568C7.501,13.403,9.041,12.983,10.224,12.019C11.914,10.644,12.612,8.403,13.038,6.265C13.611,3.373,13.843,0.412,13.728,-2.534Z" /></g><g id="path232" transform="matrix(1,0,0,1,1292.204,982.98)"><path fill="#428dfc" fill-opacity="1" d="M9.55,8.878C12.215,7.946,15.021,6.114,15.304,3.301C15.555,0.81,13.73,-1.358,12.023,-3.189C10.212,-5.134,8.402,-7.079,6.59,-9.024C6.206,-9.438,5.803,-9.864,5.28,-10.077C4.535,-10.38,3.692,-10.198,2.918,-9.98C-0.968,-8.885,-4.573,-6.988,-8.145,-5.105C-9.449,-4.417,-10.768,-3.72,-11.88,-2.75C-14.993,-0.036,-16.298,5.002,-14.533,8.739C-11.239,7.496,-7.348,8.84,-3.916,9.627C0.525,10.645,5.249,10.383,9.55,8.878Z" /></g><g id="path234" transform="matrix(1,0,0,1,1292.312,986.629)"><path fill="#e94a47" fill-opacity="1" d="M3.458,2.144C-3.043,2.144,-9.436,1.007,-15.238,-1.235C-15.481,-1.328,-15.601,-1.601,-15.507,-1.843C-15.414,-2.086,-15.141,-2.206,-14.9,-2.113C-5.787,1.408,4.822,2.154,14.971,-0.012C15.223,-0.067,15.474,0.096,15.529,0.35C15.583,0.605,15.421,0.854,15.167,0.909C11.295,1.735,7.357,2.144,3.458,2.144Z" /></g><g id="path236" transform="matrix(1,0,0,1,1292.004,986.153)"><path fill="#e94a47" fill-opacity="1" d="M-5.64,2.931C-9.21,2.931,-12.529,2.404,-15.586,1.349C-15.831,1.264,-15.962,0.996,-15.877,0.751C-15.793,0.504,-15.526,0.374,-15.28,0.458C-7.031,3.306,3.242,2.178,15.25,-2.894C15.488,-2.995,15.764,-2.883,15.866,-2.643C15.966,-2.404,15.854,-2.128,15.615,-2.027C7.798,1.276,0.687,2.931,-5.64,2.931Z" /></g><g id="path242" transform="matrix(1,0,0,1,1285.63,1002.096)"><path fill="#23286b" fill-opacity="1" d="M-1.49,-2.865C-2.366,-2.865,-3.051,-2.559,-3.371,-2.025C-4.034,-0.918,-3.05,0.945,-1.224,2.042C-0.342,2.572,0.622,2.865,1.49,2.865C2.366,2.865,3.051,2.558,3.37,2.025C4.033,0.918,3.049,-0.944,1.223,-2.042C0.341,-2.572,-0.623,-2.865,-1.49,-2.865ZM1.491,3.805C0.456,3.805,-0.679,3.466,-1.707,2.85C-4.048,1.442,-5.133,-0.912,-4.176,-2.51C-3.682,-3.333,-2.703,-3.805,-1.49,-3.805C-0.455,-3.805,0.681,-3.465,1.707,-2.848C4.049,-1.441,5.133,0.912,4.177,2.51C3.683,3.333,2.704,3.805,1.491,3.805Z" /></g><g id="path244" transform="matrix(1,0,0,1,1296.89,972.668)"><path fill="#e94a47" fill-opacity="1" d="M2.718,-2.722L-2.718,-2.722L-2.718,2.722L2.718,2.722L2.718,-2.722Z" /></g></g></g></g></g><g transform="matrix(4,0,0,4,-3415.438,-3344.284)" id="books"><g id="path178" transform="matrix(1,0,0,1,1261.954,1231.406)"><path fill="url(#null)" d="M105.124,0.075C105.124,10.797,96.463,19.434,85.711,19.434C85.562,19.434,85.563,19.434,85.413,19.434L-105.124,19.434L-105.124,11.541L86.01,11.541C92.431,11.243,97.359,5.881,97.061,-0.372C96.762,-6.478,91.686,-11.392,85.564,-11.392C85.414,-11.392,85.264,-11.392,85.116,-11.392L-105.124,-11.392L-105.124,-19.434L85.563,-19.434L85.711,-19.434C96.463,-19.285,105.124,-10.648,105.124,0.075Z" /></g><g id="path180" transform="matrix(1,0,0,1,1250.531,1386.507)"><path fill="url(#null)" d="M-97.136,-0.001C-97.136,6.105,-92.207,11.169,-86.085,11.467L105.049,11.467L105.049,19.359L-85.637,19.359L-85.786,19.359C-96.538,19.359,-105.199,10.722,-105.199,-0.001C-105.199,-10.723,-96.538,-19.359,-85.786,-19.359L105.199,-19.359L105.199,-11.467L-85.04,-11.467C-85.189,-11.467,-85.338,-11.467,-85.486,-11.467C-91.908,-11.617,-97.136,-6.405,-97.136,-0.001Z" /></g><g id="path182" transform="matrix(1,0,0,1,1278.156,1308.994)"><path fill="url(#null)" d="M-96.238,0.224C-96.238,6.33,-91.311,11.393,-85.188,11.69L104.9,11.69L104.9,19.435L-85.786,19.435C-96.536,19.286,-105.198,10.498,-105.048,-0.224C-104.899,-10.798,-96.388,-19.285,-85.786,-19.435L105.05,-19.435L105.05,-11.243L-84.144,-11.243C-84.293,-11.243,-84.443,-11.243,-84.591,-11.243C-91.012,-11.243,-96.238,-6.179,-96.238,0.224Z" /></g><g id="path184" transform="matrix(1,0,0,1,1258.52,1269.978)"><path fill="url(#null)" d="M-1.642,-0.671C-1.642,-0.374,-1.642,-0.076,-1.642,0.074C-1.642,6.179,3.286,11.243,9.408,11.541L9.855,11.541L105.124,11.541L105.124,19.434L-85.711,19.434C-96.462,19.434,-105.124,10.647,-105.124,-0.075C-105.124,-10.797,-96.463,-19.434,-85.711,-19.434L104.974,-19.434L104.974,-11.541L10.154,-11.541C10.005,-11.541,9.855,-11.541,9.707,-11.541C9.408,-11.541,9.259,-11.541,8.96,-11.541C3.585,-11.243,-0.746,-7.074,-1.642,-1.861C-1.642,-1.267,-1.642,-0.969,-1.642,-0.671Z" /></g><g id="path186" transform="matrix(1,0,0,1,1256.429,1153.968)"><path fill="url(#null)" d="M19.561,-1.117C19.561,-0.67,19.561,-0.372,19.561,0.074C19.561,6.179,24.489,11.243,30.611,11.541L99.299,11.541L99.299,19.434L-79.888,19.434C-90.639,19.434,-99.299,10.648,-99.299,-0.074C-99.299,-10.797,-90.64,-19.285,-79.888,-19.435L99.151,-19.435L99.151,-11.542L31.358,-11.542C31.208,-11.542,31.058,-11.542,30.91,-11.542C30.761,-11.542,30.463,-11.542,30.314,-11.542C24.938,-11.244,20.31,-7.223,19.563,-1.862C19.562,-1.564,19.561,-1.267,19.561,-1.117Z" /></g><g id="path188" transform="matrix(1,0,0,1,1279.202,1347.638)"><path fill="url(#null)" d="M105.199,0.001C105.199,10.723,96.538,19.36,85.786,19.36C85.786,19.36,85.636,19.36,85.487,19.36L-105.199,19.36L-105.199,11.467L-1.121,11.467C5.002,11.169,9.93,6.105,9.93,0C9.93,-0.298,9.93,-0.596,9.93,-0.745C9.483,-6.405,5.003,-11.02,-0.82,-11.467C-1.12,-11.467,-1.269,-11.467,-1.568,-11.467C-1.718,-11.467,-1.867,-11.467,-2.016,-11.467L-105.048,-11.467L-105.048,-19.36L85.637,-19.36C85.637,-19.36,85.786,-19.36,85.935,-19.36C96.388,-19.358,105.199,-10.722,105.199,0.001Z" /></g><g id="path190" transform="matrix(1,0,0,1,1274.05,1192.76)"><path fill="url(#null)" d="M105.273,0.001C105.273,10.723,96.612,19.36,85.86,19.36L85.561,19.36L-105.273,19.36L-105.273,11.467L84.816,11.467C91.237,11.17,96.164,5.808,95.866,-0.446C95.567,-6.551,90.49,-11.466,84.368,-11.466C84.218,-11.466,84.069,-11.466,83.92,-11.466L-105.273,-11.466L-105.273,-19.359L85.413,-19.359L85.712,-19.359C96.463,-19.507,105.273,-10.721,105.273,0.001Z" /></g><g id="path192" transform="matrix(1,0,0,1,1235.301,1347.639)"><path fill="url(#null)" d="M53.682,0C53.682,6.105,48.754,11.169,42.632,11.467L-53.682,11.467L-53.682,-11.467L42.93,-11.467C48.605,-11.02,53.233,-6.553,53.681,-0.745C53.682,-0.596,53.682,-0.298,53.682,0Z" /></g><g id="path194" transform="matrix(1,0,0,1,1273.753,1192.761)"><path fill="url(#null)" d="M96.312,0C96.462,-6.105,91.534,-11.317,85.412,-11.467C85.262,-11.467,85.113,-11.467,84.964,-11.467L-96.316,-11.467L-96.316,11.467L85.261,11.467L85.709,11.467C91.832,11.02,96.312,5.957,96.312,0Z" /></g><g id="path196" transform="matrix(1,0,0,1,1261.658,1231.48)"><path fill="url(#null)" d="M97.208,0.001C97.357,-6.254,92.429,-11.317,86.158,-11.467C86.008,-11.467,85.859,-11.467,85.71,-11.467L-97.212,-11.467L-97.212,11.467L86.158,11.467L86.605,11.467C92.728,11.021,97.357,5.958,97.208,0.001Z" /></g><g id="path198" transform="matrix(1,0,0,1,1306.23,1270.199)"><path fill="url(#null)" d="M49.5,-11.466L49.5,11.466L-38.451,11.466C-44.573,11.168,-49.501,6.105,-49.501,0C-49.501,-0.298,-49.501,-0.596,-49.501,-0.745C-49.501,-1.043,-49.501,-1.34,-49.351,-1.638C-48.604,-7,-44.125,-11.02,-38.749,-11.318L49.501,-11.318L49.501,-11.466L49.5,-11.466Z" /></g><g id="path200" transform="matrix(1,0,0,1,1251.271,1386.507)"><path fill="url(#null)" d="M97.738,-11.467L-86.228,-11.467C-86.378,-11.467,-86.527,-11.467,-86.676,-11.467C-93.097,-11.169,-98.025,-5.957,-97.726,0.447C-97.576,6.254,-92.948,11.02,-87.124,11.467L-86.676,11.467L97.738,11.467L97.738,-11.467Z" /></g><g id="path202" transform="matrix(1,0,0,1,1312.127,1154.042)"><path fill="url(#null)" d="M36.286,-11.466L36.286,11.466L-25.236,11.466C-31.358,11.168,-36.286,6.104,-36.286,-0.001C-36.286,-0.448,-36.286,-0.745,-36.286,-1.191C-36.286,-1.341,-36.286,-1.639,-36.286,-1.788C-35.389,-7.149,-30.91,-11.168,-25.535,-11.466L36.286,-11.466Z" /></g><g id="path204" transform="matrix(1,0,0,1,1278.001,1309.217)"><path fill="url(#null)" d="M96.096,-11.467L-84.735,-11.467C-84.885,-11.467,-85.034,-11.467,-85.183,-11.467C-91.604,-11.169,-96.382,-5.659,-96.083,0.596C-95.784,6.255,-91.305,10.871,-85.631,11.467L-85.183,11.467L95.946,11.467L95.946,-11.467L96.096,-11.467Z" /></g><g id="g5059" transform="matrix(1,0,0,1,0,0)"><g id="path246" transform="matrix(1,0,0,1,1343.547,1116.402)"><path fill="#d62929" fill-opacity="1" d="M25.432,-6.028L-25.432,-6.028L-25.432,6.028L25.432,6.028L25.432,-6.028Z" /></g><g id="path248" transform="matrix(1,0,0,1,1333.452,1128.458)"><path fill="#428dfc" fill-opacity="1" d="M25.432,-6.029L-25.432,-6.029L-25.432,6.029L25.432,6.029L25.432,-6.029Z" /></g><g id="path250" transform="matrix(1,0,0,1,1345.489,1116.401)"><path fill="#d6d7d8" fill-opacity="1" d="M23.879,-3.501L-23.879,-3.501L-23.879,3.5L23.879,3.5L23.879,-3.501Z" /></g><g id="path252" transform="matrix(1,0,0,1,1331.704,1128.247)"><path fill="#eeeeee" fill-opacity="1" d="M8.931,-2.917L-8.931,-2.917L-8.931,2.917L8.931,2.917L8.931,-2.917Z" /></g><g id="path272" transform="matrix(1,0,0,1,1345.489,1118.637)"><path fill="#eeeeee" fill-opacity="1" d="M23.879,-0.441L-23.879,-0.441L-23.879,0.441L23.879,0.441L23.879,-0.441Z" /></g><g id="path274" transform="matrix(1,0,0,1,1345.489,1116.872)"><path fill="#eeeeee" fill-opacity="1" d="M23.879,-0.441L-23.879,-0.441L-23.879,0.441L23.879,0.441L23.879,-0.441Z" /></g><g id="path276" transform="matrix(1,0,0,1,1345.489,1115.107)"><path fill="#eeeeee" fill-opacity="1" d="M23.879,-0.441L-23.879,-0.441L-23.879,0.441L23.879,0.441L23.879,-0.441Z" /></g><g id="path278" transform="matrix(1,0,0,1,1345.489,1113.342)"><path fill="#eeeeee" fill-opacity="1" d="M23.879,-0.441L-23.879,-0.441L-23.879,0.441L23.879,0.441L23.879,-0.441Z" /></g><g id="path280" transform="matrix(1,0,0,1,1349.036,1128.475)"><path fill="#23286b" fill-opacity="1" d="M0,3.353C1.848,3.353,3.347,1.852,3.347,0C3.347,-1.852,1.848,-3.353,0,-3.353C-1.849,-3.353,-3.347,-1.852,-3.347,0C-3.347,1.852,-1.849,3.353,0,3.353Z" /></g></g></g><g id="fether"><g transform="translate(1276.047,682.893)"><animateTransform repeatCount="indefinite" type="translate" attributeName="transform" dur="4s" begin="0s" calcMode="spline" values="1276.047 682.893; 1276.047 736.393; 1276.047 682.893" keyTimes="0; 0.5; 1" keySplines="0.333 0 0.667 1; 0.333 0 0.667 1" fill="freeze" /><g transform="rotate(0)"><animateTransform repeatCount="indefinite" type="rotate" attributeName="transform" dur="4s" begin="0s" calcMode="spline" values="0; -18.489; 0" keyTimes="0; 0.5; 1" keySplines="0.333 0 0.667 1; 0.333 0 0.667 1" fill="freeze" /><g transform="scale(4,4) translate(-1172.872,-1006.795)"><g id="path286" transform="matrix(1,0,0,1,1183.281,990.826)"><path fill="#d6d7d8" fill-opacity="1" d="M-3.972,2.389L-2.56,1.176L-2.549,1.166L-1.643,0.388L-1.002,-0.163C-1.002,-0.163,-0.869,-0.237,-0.793,-0.299L4.109,-4.486L16.205,-1.652L16.223,-1.681C18.332,-5.203,19.366,-8.806,19.64,-13.654C19.68,-14.359,19.688,-15.098,19.366,-15.725C18.775,-16.876,17.32,-17.24,16.032,-17.333C13.544,-17.513,11.046,-17.143,8.617,-16.57C7.568,-16.323,6.539,-16.028,5.515,-15.706L6.229,-6.373L3.903,-4.375L3.1,-14.873C-1.058,-13.308,-4.976,-11.147,-8.611,-8.544L-7.547,5.46L-9.873,7.457L-10.958,-6.778C-12.382,-5.645,-13.762,-4.446,-15.084,-3.186C-14.632,-1.634,-15.046,-0.014,-15.446,1.555C-15.507,1.798,-15.57,2.038,-15.628,2.277C-16.196,4.629,-15.99,6.37,-15.023,7.457C-14.932,7.558,-14.832,7.657,-14.735,7.752C-14.566,7.918,-14.392,8.089,-14.252,8.29C-13.551,9.291,-13.899,10.673,-14.555,11.598L-14.747,11.461C-14.139,10.604,-13.81,9.333,-14.445,8.426C-14.573,8.242,-14.732,8.086,-14.9,7.92C-15,7.822,-15.103,7.721,-15.199,7.614C-15.216,7.595,-15.233,7.575,-15.25,7.556C-16.231,6.406,-16.436,4.612,-15.858,2.221C-15.8,1.98,-15.738,1.738,-15.676,1.495C-15.294,-0.003,-14.903,-1.55,-15.282,-3.005C-16.813,-1.533,-18.275,0.016,-19.659,1.63L-18.64,14.988L-17.209,13.758L-1.968,17.361C-1.969,17.361,-1.973,17.377,-1.974,17.377L-1.968,17.379C-1.88,17.234,-1.843,17.261,-1.781,17.212L-17.032,13.612L-17.027,13.606L-17.034,13.602L-17.027,13.603L-15.956,12.683L-0.677,16.311C1.123,14.828,2.789,13.352,4.42,11.775C0.366,11.659,-3.67,11.248,-7.666,10.551C-3.88,9.449,6.519,9.465,6.519,9.465C6.519,9.465,8.771,7.405,9.848,6.275C10.009,6.106,10.162,5.93,10.318,5.762L-3.958,2.399L10.319,5.762C10.319,5.761,10.32,5.76,10.321,5.759L-3.968,2.356" /></g><g id="path288" transform="matrix(1,0,0,1,1163.506,1011.168)"><path fill="#d6d7d8" fill-opacity="1" d="M9.51,2.156C8.655,2.449,7.54,2.743,6.491,2.422C5.458,2.106,4.731,1.28,4.028,0.481C3.565,-0.045,3.086,-0.589,2.524,-0.983C0.935,-2.1,-1.429,-2.083,-3.798,-0.937L-3.86,-1.064L-5.508,0.352L-6.293,-9.914C-9.917,-3.927,-12.463,2.885,-11.452,9.732C-6.355,10.528,-1.24,8.581,3.369,6.255C6.227,4.812,8.999,3.203,11.675,1.444C11.15,1.563,10.635,1.75,10.133,1.934C9.929,2.007,9.718,2.085,9.51,2.156Z" /></g><g id="path290" transform="matrix(1,0,0,1,1169.339,1010.037)"><path fill="#a1c3fc" fill-opacity="1" d="M-3.176,-0.048C-2.591,0.363,-2.102,0.919,-1.63,1.455C-0.918,2.265,-0.243,3.03,0.727,3.327C1.712,3.628,2.779,3.344,3.6,3.063C3.806,2.993,4.016,2.916,4.219,2.842C4.899,2.593,5.6,2.339,6.332,2.248C7.378,1.549,8.409,0.827,9.424,0.084L-5.594,-3.456L-9.424,-0.165C-7.089,-1.211,-4.766,-1.164,-3.176,-0.048Z" /></g><g id="path292" transform="matrix(1,0,0,1,1193.841,993.385)"><path fill="#428dfc" fill-opacity="1" d="M0.326,-0.828C0.093,-0.743,-0.138,-0.637,-0.362,-0.535C-0.634,-0.411,-0.914,-0.282,-1.205,-0.187C-1.879,0.034,-2.607,0.067,-3.3,-0.073L1.656,1.093C1.656,1.094,1.655,1.095,1.654,1.096L1.66,1.097C2.245,0.425,2.791,-0.231,3.3,-0.878C2.337,-1.18,1.277,-1.175,0.326,-0.828Z" /></g><g id="path294" transform="matrix(1,0,0,1,1193.841,993.385)"><path fill="#eeeeee" fill-opacity="1" d="M0.326,-0.828C0.093,-0.743,-0.138,-0.637,-0.362,-0.535C-0.634,-0.411,-0.914,-0.282,-1.205,-0.187C-1.879,0.034,-2.607,0.067,-3.3,-0.073L1.656,1.093C1.656,1.094,1.655,1.095,1.654,1.096L1.66,1.097C2.245,0.425,2.791,-0.231,3.3,-0.878C2.337,-1.18,1.277,-1.175,0.326,-0.828Z" /></g><g id="path296" transform="matrix(1,0,0,1,1185.944,991.744)"><path fill="#428dfc" fill-opacity="1" d="M3.3,1.067C2.811,0.772,2.387,0.375,1.976,-0.009C1.414,-0.533,0.884,-1.029,0.204,-1.291C-0.963,-1.74,-2.272,-1.385,-3.622,-0.946L-3.666,-1.081L-4.307,-0.531L4.307,1.498C3.954,1.4,3.614,1.257,3.3,1.067Z" /></g><g id="path298" transform="matrix(1,0,0,1,1185.944,991.744)"><path fill="#eeeeee" fill-opacity="1" d="M3.3,1.067C2.811,0.772,2.387,0.375,1.976,-0.009C1.414,-0.533,0.884,-1.029,0.204,-1.291C-0.963,-1.74,-2.272,-1.385,-3.622,-0.946L-3.666,-1.081L-4.307,-0.531L4.307,1.498C3.954,1.4,3.614,1.257,3.3,1.067Z" /></g><g id="path300" transform="matrix(1,0,0,1,1190.97,989.728)"><path fill="#eeeeee" fill-opacity="1" d="M-8.503,0.774C-7.161,0.388,-5.913,0.051,-4.74,0.503C-4.017,0.781,-3.444,1.317,-2.89,1.833C-2.488,2.209,-2.072,2.597,-1.605,2.88C-0.656,3.453,0.539,3.59,1.592,3.245C1.871,3.153,2.146,3.028,2.411,2.907C2.639,2.802,2.874,2.695,3.115,2.607C4.143,2.232,5.291,2.237,6.325,2.58C7.15,1.517,7.874,0.473,8.503,-0.578L-3.607,-3.433L-8.503,0.774Z" /></g><g id="path302" transform="matrix(1,0,0,1,1199.479,989.152)"><path fill="#428dfc" fill-opacity="1" d="M-0.002,-0.002C-0.002,-0.001,-0.003,0,-0.004,0.001L0.002,0.002C0.002,0.001,0.003,0,0.004,-0.001L-0.002,-0.002Z" /></g><g id="path304" transform="matrix(1,0,0,1,1187.038,994.286)"><path fill="#eeeeee" fill-opacity="1" d="M7.726,1.021L-6.306,-2.294L-6.317,-2.283L-7.726,-1.074L6.482,2.277L6.523,2.294" /></g><g id="path306" transform="matrix(1,0,0,1,1188.115,993.272)"><path fill="#78a9ef" fill-opacity="1" d="M2.269,0.003L-6.477,-2.059L-7.383,-1.28C-7.383,-1.28,6.619,2.058,6.618,2.059L6.701,1.995C6.951,1.718,7.146,1.46,7.383,1.189L2.376,0.028C2.34,0.02,2.305,0.012,2.269,0.003Z" /></g><g id="path308" transform="matrix(1,0,0,1,1186.013,992.247)"><path fill="#78a9ef" fill-opacity="1" d="M4.239,0.997L-4.372,-1.03L4.372,1.03C4.327,1.019,4.283,1.009,4.239,0.997Z" /></g><g id="path310" transform="matrix(1,0,0,1,1187.75,993.651)"><path fill="#78a9ef" fill-opacity="1" d="M-7.015,-1.656L7.013,1.656C7.014,1.655,7.015,1.653,7.015,1.652L-7.015,-1.656Z" /></g><g id="path312" transform="matrix(1,0,0,1,1189.787,991.705)"><path fill="#ffffff" fill-opacity="1" d="M4.299,0.63C4.058,0.718,3.822,0.826,3.594,0.93C3.329,1.052,3.054,1.177,2.775,1.268C1.722,1.613,0.528,1.477,-0.421,0.903C-0.888,0.621,-1.304,0.233,-1.706,-0.143C-2.259,-0.659,-2.834,-1.196,-3.557,-1.474C-4.73,-1.926,-5.978,-1.589,-7.32,-1.203L-7.508,-1.042L-7.464,-0.907C-6.114,-1.346,-4.806,-1.702,-3.639,-1.253C-2.959,-0.991,-2.429,-0.495,-1.867,0.03C-1.456,0.413,-1.03,0.81,-0.542,1.105C-0.228,1.295,0.112,1.441,0.465,1.539L0.753,1.607C1.446,1.747,2.174,1.713,2.848,1.493C3.139,1.397,3.421,1.269,3.692,1.145C3.916,1.042,4.147,0.937,4.38,0.852C5.331,0.505,6.391,0.5,7.354,0.802C7.406,0.735,7.457,0.669,7.508,0.603C6.474,0.26,5.327,0.256,4.299,0.63Z" /></g><g id="path314" transform="matrix(1,0,0,1,1190.396,993.278)"><path fill="#ffffff" fill-opacity="1" d="M0.097,0.024C0.113,0.028,0.128,0.031,0.144,0.034L-0.144,-0.034C-0.099,-0.022,-0.056,-0.012,-0.011,-0.001C0.024,0.008,0.061,0.017,0.097,0.024Z" /></g><g id="path316" transform="matrix(1,0,0,1,1172.529,1007.352)" opacity="0.61"><path fill="#ffffff" fill-opacity="1" d="M-7.889,-1.539L-8.783,-0.77L6.234,2.768C7.097,2.137,7.944,1.485,8.783,0.822L-6.457,-2.768L-7.889,-1.539Z" /></g><g id="path318" transform="matrix(1,0,0,1,1181.315,1008.176)"><path fill="#428dfc" fill-opacity="1" d="M-0.001,0.001C0.001,0,0.001,-0.001,0.001,-0.001L-0.001,0.001Z" /></g><g id="path320" transform="matrix(1,0,0,1,1181.315,1008.176)" opacity="0.61"><path fill="#ffffff" fill-opacity="1" d="M-0.001,0.001C0.001,0,0.001,-0.001,0.001,-0.001L-0.001,0.001Z" /></g><g id="path322" transform="matrix(1,0,0,1,1174.427,1005.769)"><path fill="#f8afa9" fill-opacity="1" d="M-7.104,-2.261L-8.174,-1.341L7.075,2.261C7.14,2.216,7.809,1.644,8.174,1.344L-7.104,-2.261Z" /></g><g id="path324" transform="matrix(1,0,0,1,1182.649,1007.139)"><path fill="#1d72d8" fill-opacity="1" d="M0,0.001L0.001,-0.001L-0.001,-0.001L0,0.001Z" /></g><g id="path326" transform="matrix(1,0,0,1,1160.918,1001.987)"><path fill="#ffffff" fill-opacity="1" d="M2.704,-9.532C1.033,-7.583,-0.532,-5.546,-1.971,-3.437C-2.57,-2.559,-3.165,-1.654,-3.722,-0.735L-2.92,9.532L-1.272,8.117L2.828,4.595L3.722,3.827L2.704,-9.532Z" /></g><g id="path328" transform="matrix(1,0,0,1,1167.659,1011.424)"><path fill="#428dfc" fill-opacity="1" d="M5.281,1.676C4.46,1.958,3.392,2.242,2.407,1.94C1.437,1.644,0.764,0.879,0.052,0.069C-0.42,-0.468,-0.91,-1.024,-1.495,-1.435C-3.084,-2.551,-5.409,-2.598,-7.744,-1.551L-8.013,-1.321L-7.951,-1.194C-5.582,-2.34,-3.218,-2.357,-1.63,-1.241C-1.067,-0.846,-0.588,-0.302,-0.125,0.224C0.578,1.023,1.305,1.849,2.338,2.165C3.388,2.486,4.503,2.192,5.357,1.899C5.565,1.828,5.776,1.751,5.979,1.677C6.482,1.493,6.996,1.306,7.521,1.187C7.686,1.079,7.849,0.97,8.013,0.86C7.281,0.951,6.579,1.206,5.899,1.454C5.696,1.529,5.487,1.606,5.281,1.676Z" /></g><g id="path330" transform="matrix(1,0,0,1,1159.76,1009.988)"><path fill="#ffffff" fill-opacity="1" d="M-0.156,0.028L-0.114,0.115L0.156,-0.115C0.073,-0.045,-0.052,-0.022,-0.156,0.028Z" /></g><g id="path332" transform="matrix(1,0,0,1,1174.016,990.285)"><path fill="#eeeeee" fill-opacity="1" d="M1.718,6L0.67,-7.998C-0.125,-7.429,-0.95,-6.842,-1.718,-6.232L-0.609,7.998L1.718,6Z" /></g><g id="path334" transform="matrix(1,0,0,1,1187.934,980.786)"><path fill="#1d72d8" fill-opacity="1" d="M1.575,3.667L0.861,-5.665C0.048,-5.41,-0.779,-5.135,-1.575,-4.835L-0.751,5.665L1.575,3.667Z" /></g><g id="path336" transform="matrix(1,0,0,1,1168.259,995.033)"><path fill="#428dfc" fill-opacity="1" d="M-0.654,-2.712C-0.716,-2.469,-0.777,-2.227,-0.836,-1.986C-1.414,0.405,-1.209,2.199,-0.228,3.349C-0.211,3.368,-0.194,3.387,-0.177,3.407C-0.081,3.514,0.022,3.615,0.122,3.713C0.29,3.879,0.449,4.035,0.578,4.218C1.212,5.125,0.883,6.396,0.275,7.253L0.467,7.39C1.123,6.465,1.471,5.083,0.77,4.082C0.63,3.881,0.455,3.71,0.287,3.544C0.19,3.449,0.089,3.35,-0.001,3.249C-0.968,2.163,-1.175,0.421,-0.606,-1.931C-0.549,-2.171,-0.487,-2.412,-0.425,-2.655C-0.025,-4.224,0.409,-5.839,-0.043,-7.39C-0.108,-7.329,-0.195,-7.274,-0.26,-7.212C0.119,-5.757,-0.272,-4.21,-0.654,-2.712Z" /></g><g id="path338" transform="matrix(1,0,0,1,1148.499,1037.466)"><path fill="#23286b" fill-opacity="1" d="M5.695,-5.275L-3.378,9.838L-5.695,-9.838L-0.958,-2.293L5.695,-5.275Z" /></g><g id="path340" transform="matrix(1,0,0,1,1168.273,1007.13)"><path fill="#23286b" fill-opacity="1" d="M-22.345,31.599C-15.601,12.67,-5.607,-4.283,7.359,-18.788C11.004,-22.865,15.987,-28.015,22.214,-31.686L22.345,-31.463C16.149,-27.811,11.184,-22.678,7.552,-18.615C-5.392,-4.135,-15.369,12.789,-22.102,31.686L-22.345,31.599Z" /></g><g id="path364" transform="matrix(1,0,0,1,1152.483,971.531)"><path fill="#23286b" fill-opacity="1" d="M2.506,5.246C-0.178,4.473,-2.761,3.559,-5.246,2.506C-4.39,-0.284,-3.486,-2.899,-2.506,-5.246C0.117,-4.443,2.701,-3.53,5.246,-2.506C4.508,0.049,3.582,2.635,2.506,5.246Z" /></g></g></g></g></g><g id="g5267"><g transform="translate(500.76,1668.901)"><animateTransform repeatCount="indefinite" type="translate" attributeName="transform" dur="4s" begin="0s" calcMode="spline" values="500.76 1668.901; 404.76 1680.901; 500.76 1668.901" keyTimes="0; 0.5; 1" keySplines="0.333 0 0.667 1; 0.333 0 0.667 1" fill="freeze" /><g transform="scale(4,4)"><animateTransform repeatCount="indefinite" type="scale" attributeName="transform" dur="4s" begin="0s" calcMode="spline" values="4 4; 4.5 4.5; 4 4" keyTimes="0; 0.492; 1" keySplines="0.333 0 0.667 1; 0.333 0 0.667 1" fill="freeze" /><g transform="translate(-979.05,-1253.297)"><g id="path342" transform="matrix(1,0,0,1,988.159,1264.717)"><path fill="#d9e021" fill-opacity="1" d="M-0.001,3.711C2.049,3.711,3.712,2.05,3.712,0C3.712,-2.05,2.049,-3.711,-0.001,-3.711C-2.05,-3.711,-3.712,-2.05,-3.712,0C-3.712,2.05,-2.05,3.711,-0.001,3.711Z" /></g><g id="path344" transform="matrix(1,0,0,1,948.986,1214.549)"><path fill="#a1c3fc" fill-opacity="1" d="M1.254,2.385L2.385,-1.254L-1.254,-2.385L-2.385,1.254L1.254,2.385Z" /></g><g id="path346" transform="matrix(1,0,0,1,973.524,1223.829)"><path fill="#e94a47" fill-opacity="1" d="M3.415,6.494L6.494,-3.414L-3.414,-6.494L-6.494,3.414L3.415,6.494Z" /></g><g id="path348" transform="matrix(1,0,0,1,958.882,1261.558)"><path fill="#1d72d8" fill-opacity="1" d="M3.414,6.494L6.494,-3.414L-3.414,-6.494L-6.494,3.415L3.414,6.494Z" /></g><g id="path350" transform="matrix(1,0,0,1,963.688,1220.992)"><path fill="#23286b" fill-opacity="1" d="M-2.29,15.86C-2.446,15.86,-2.595,15.772,-2.665,15.621C-7.523,5.156,-4.527,-8.337,4.303,-15.764C4.477,-15.911,4.737,-15.887,4.885,-15.713C5.032,-15.539,5.009,-15.279,4.835,-15.132C-3.719,-7.937,-6.622,5.135,-1.916,15.275C-1.82,15.481,-1.91,15.727,-2.116,15.822C-2.173,15.848,-2.232,15.86,-2.29,15.86Z" /></g><g id="path352" transform="matrix(1,0,0,1,999.909,1249.34)"><path fill="#23286b" fill-opacity="1" d="M-11.178,2.666C-11.286,2.666,-11.394,2.624,-11.475,2.54C-11.633,2.377,-11.628,2.115,-11.464,1.957C-5.487,-3.805,5.002,-4.245,11.438,1.002C11.616,1.146,11.642,1.405,11.498,1.582C11.353,1.76,11.094,1.784,10.918,1.641C4.787,-3.354,-5.2,-2.937,-10.891,2.551C-10.972,2.627,-11.075,2.666,-11.178,2.666Z" /></g><g id="path366" transform="matrix(1,0,0,1,976.656,1297.323)"><path fill="#e94a47" fill-opacity="1" d="M4.139,1.887C2.141,2.772,0.133,3.522,-1.887,4.139C-2.776,2.035,-3.547,0.012,-4.139,-1.889C-2.162,-2.725,-0.153,-3.475,1.889,-4.139C2.73,-2.236,3.473,-0.22,4.139,1.887Z" /></g></g></g></g></g><g id="svg532"><g transform="translate(769.365,611.953)"><g transform="scale(4,4)"><animateTransform repeatCount="indefinite" type="scale" attributeName="transform" dur="4s" begin="0s" calcMode="spline" values="4 4; 5.006 5.006; 4 4" keyTimes="0; 0.5; 1" keySplines="0.333 0 0.667 1; 0.333 0 0.667 1" fill="freeze" /><g transform="translate(-1046.201,-989.059)"><g id="path52" transform="matrix(1,0,0,1,1124.053,1001.969)"><path fill="#a1c3fc" fill-opacity="1" d="M0.556,1.924L1.919,-0.557L-0.556,-1.924L-1.919,0.557L0.556,1.924Z" /></g><g id="path54" transform="matrix(1,0,0,1,1116.631,1013.768)"><path fill="#ffffff" fill-opacity="1" d="M0.557,1.924L1.919,-0.557L-0.557,-1.924L-1.919,0.557L0.557,1.924Z" /></g><g id="g5239" transform="matrix(1,0,0,1,0,0)"><g id="path50" transform="matrix(1,0,0,1,1092.363,971.654)"><path fill="#a1c3fc" fill-opacity="1" d="M0.556,1.924L1.919,-0.557L-0.556,-1.924L-1.919,0.557L0.556,1.924Z" /></g><g id="path56" transform="matrix(1,0,0,1,1117.848,943.818)"><path fill="#e94a47" fill-opacity="1" d="M-1.042,3.149L-3.143,-1.045L1.042,-3.149L3.143,1.045L-1.042,3.149Z" /></g><g id="path58" transform="matrix(1,0,0,1,1007.195,1022.547)"><path fill="#23286b" fill-opacity="1" d="M2.328,-2.358L-2.352,-2.335L-2.328,2.358L2.352,2.336L2.328,-2.358Z" /></g><g id="path60" transform="matrix(1,0,0,1,1097.963,953.031)"><path fill="#23286b" fill-opacity="1" d="M-12.347,11.835C-12.272,11.815,-12.217,11.746,-12.218,11.664C-12.281,7.654,-9.876,4.05,-7.774,1.358C-3.507,-4.105,3.457,-10.768,12.407,-11.492C12.502,-11.498,12.573,-11.584,12.566,-11.68C12.558,-11.776,12.474,-11.847,12.378,-11.839C3.301,-11.105,-3.739,-4.374,-8.048,1.143C-10.185,3.88,-12.631,7.55,-12.566,11.669C-12.564,11.765,-12.486,11.842,-12.39,11.84C-12.375,11.84,-12.361,11.839,-12.347,11.835Z" /></g><g id="path62" transform="matrix(1,0,0,1,1126.907,963.697)"><path fill="#23286b" fill-opacity="1" d="M8.354,2.872C8.371,2.867,8.388,2.86,8.404,2.85C8.484,2.798,8.507,2.691,8.455,2.61C7.696,1.428,6.95,0.472,5.777,-0.353C4.756,-1.071,3.696,-1.613,2.793,-1.878C-1.956,-3.27,-5.614,-3.21,-8.392,-1.691C-8.476,-1.645,-8.507,-1.54,-8.461,-1.455C-8.415,-1.37,-8.311,-1.338,-8.226,-1.385C-5.533,-2.856,-1.961,-2.909,2.696,-1.544C3.563,-1.289,4.587,-0.765,5.579,-0.068C6.704,0.724,7.426,1.65,8.163,2.798C8.206,2.862,8.283,2.891,8.354,2.872Z" /></g><g id="path64" transform="matrix(1,0,0,1,1014.165,1029.479)"><path fill="#23286b" fill-opacity="1" d="M-3.496,4.272C3.038,2.545,7.773,-0.2,13.281,-5.237C13.352,-5.302,13.357,-5.412,13.293,-5.483C13.228,-5.554,13.118,-5.559,13.047,-5.494C6.442,0.545,0.958,3.261,-7.912,4.89C-10.841,5.427,-12.727,5.186,-13.015,4.686C-13.063,4.603,-13.17,4.574,-13.252,4.622C-13.335,4.671,-13.363,4.777,-13.316,4.86C-12.887,5.603,-10.69,5.753,-7.85,5.232C-6.304,4.949,-4.86,4.633,-3.496,4.272Z" /></g><g id="path354" transform="matrix(1,0,0,1,956.901,1019.409)"><path fill="#a1c3fc" fill-opacity="1" d="M2.131,1.228L-1.227,2.128L-2.131,-1.228L1.227,-2.128L2.131,1.228Z" /></g><g id="path356" transform="matrix(1,0,0,1,974.238,1004.971)"><path fill="#e94a47" fill-opacity="1" d="M5.803,3.344L-3.342,5.795L-5.803,-3.344L3.341,-5.795L5.803,3.344Z" /></g><g id="path358" transform="matrix(1,0,0,1,988.818,976.668)"><path fill="#1d72d8" fill-opacity="1" d="M5.803,3.344L-3.34,5.795L-5.803,-3.344L3.341,-5.795L5.803,3.344Z" /></g><g id="path360" transform="matrix(1,0,0,1,972.18,996.365)"><path fill="#23286b" fill-opacity="1" d="M13.828,-4.071C13.733,-3.992,13.6,-3.961,13.472,-4.001C3.748,-7.093,-7.748,-2.964,-13.271,5.601C-13.384,5.777,-13.616,5.826,-13.791,5.713C-13.966,5.601,-14.016,5.368,-13.903,5.194C-8.204,-3.648,3.663,-7.909,13.701,-4.719C13.899,-4.656,14.009,-4.444,13.946,-4.247C13.923,-4.175,13.881,-4.116,13.828,-4.071Z" /></g><g id="path362" transform="matrix(1,0,0,1,977.071,1033.617)"><path fill="#23286b" fill-opacity="1" d="M0.679,10.448C0.672,10.454,0.666,10.458,0.66,10.463C0.492,10.585,0.256,10.549,0.134,10.382C-4.344,4.267,-3.45,-5.262,2.087,-10.428C2.231,-10.584,2.477,-10.561,2.619,-10.409C2.761,-10.258,2.753,-10.019,2.601,-9.878C-2.671,-4.958,-3.523,4.116,0.74,9.938C0.859,10.099,0.829,10.323,0.679,10.448Z" /></g><g id="path368" transform="matrix(1,0,0,1,1135.25,936.35)"><path fill="#d9e021" fill-opacity="1" d="M0,2.383C1.316,2.383,2.383,1.316,2.383,0C2.383,-1.316,1.316,-2.383,0,-2.383C-1.316,-2.383,-2.383,-1.316,-2.383,0C-2.383,1.316,-1.316,2.383,0,2.383Z" /></g><g id="path370" transform="matrix(1,0,0,1,990.784,1017.75)"><path fill="#d9e021" fill-opacity="1" d="M4.583,-1.064L0.715,4.583L-4.583,1.064L-0.714,-4.583L4.583,-1.064Z" /></g></g></g></g></g></g><g id="hand"><g transform="translate(1864.921,694.168)"><g transform="rotate(0)"><animateTransform repeatCount="indefinite" type="rotate" attributeName="transform" dur="4s" begin="0s" calcMode="spline" values="0; 5.123; 4.141; 5.631; 0" keyTimes="0; 0.225; 0.542; 0.758; 1" keySplines="0.333 0 0.667 1; 0.333 0 0.667 1; 0.333 0 0.667 1; 0.333 0 0.667 1" fill="freeze" /><g transform="scale(4,4) translate(-1320.09,-1009.613)"><g id="g5108" transform="matrix(1,0,0,1,0,0)"><g id="path254" transform="matrix(1,0,0,1,1280.197,1042.054)"><path fill="url(#null)" d="M-32.488,-5.947L-12.355,-14.68C-12.355,-14.68,32.791,0.691,32.486,1.738C32.182,2.786,20.59,13.965,19.369,14.663C18.149,15.361,-32.488,-5.947,-32.488,-5.947Z" /></g><g id="path256" transform="matrix(1,0,0,1,1265.078,1034.802)"><path fill="#23286b" fill-opacity="1" d="M-5.891,3.248C-5.977,3.248,-6.059,3.201,-6.101,3.12C-6.159,3.004,-6.114,2.863,-5.998,2.803L5.784,-3.223C5.9,-3.281,6.041,-3.236,6.1,-3.12C6.159,-3.004,6.113,-2.863,5.997,-2.804L-5.785,3.223C-5.819,3.24,-5.855,3.248,-5.891,3.248Z" /></g><g id="path258" transform="matrix(1,0,0,1,1270.053,1037.29)"><path fill="#23286b" fill-opacity="1" d="M-5.833,3.51C-5.916,3.51,-5.995,3.467,-6.039,3.39C-6.102,3.277,-6.061,3.133,-5.948,3.069L5.719,-3.481C5.832,-3.544,5.975,-3.504,6.039,-3.392C6.102,-3.278,6.062,-3.134,5.949,-3.071L-5.719,3.48C-5.755,3.501,-5.795,3.51,-5.833,3.51Z" /></g><g id="path260" transform="matrix(1,0,0,1,1279.604,1040.828)"><path fill="#23286b" fill-opacity="1" d="M-6.576,4.426C-6.654,4.426,-6.729,4.387,-6.775,4.317C-6.844,4.207,-6.812,4.062,-6.703,3.993L6.452,-4.391C6.56,-4.459,6.706,-4.428,6.776,-4.318C6.845,-4.208,6.813,-4.063,6.703,-3.994L-6.451,4.39C-6.49,4.414,-6.533,4.426,-6.576,4.426Z" /></g><g id="path262" transform="matrix(1,0,0,1,1300.023,1046.788)"><path fill="#23286b" fill-opacity="1" d="M-5.262,4.1C-5.334,4.1,-5.405,4.067,-5.451,4.004C-5.527,3.899,-5.505,3.752,-5.401,3.674L5.122,-4.054C5.226,-4.131,5.374,-4.109,5.451,-4.004C5.528,-3.899,5.505,-3.752,5.401,-3.675L-5.122,4.054C-5.164,4.085,-5.213,4.1,-5.262,4.1Z" /></g><g id="path264" transform="matrix(1,0,0,1,1292.073,1043.383)"><path fill="#23286b" fill-opacity="1" d="M-5.433,3.706C-5.511,3.706,-5.586,3.667,-5.632,3.597C-5.701,3.488,-5.67,3.342,-5.56,3.273L5.308,-3.669C5.415,-3.739,5.562,-3.708,5.632,-3.598C5.701,-3.488,5.669,-3.343,5.56,-3.273L-5.308,3.669C-5.346,3.693,-5.389,3.706,-5.433,3.706Z" /></g><g id="path268" transform="matrix(1,0,0,1,1282.089,1051.863)"><path fill="url(#null)" d="M25.714,4.491C21.461,4.491,7.218,1.572,-0.389,-1.9C-2.46,-2.845,-7.41,-8.794,-8.456,-9.358C-11.822,-11.169,-17.936,-13.453,-18.177,-12.939C-20.497,-9.066,-14.026,-10.174,-11.216,-6.548C-16.413,-8.397,-20.518,-10.263,-25.714,-12.112C-25.099,-7.147,-21.481,-8.524,-19.724,-5.967C-19.378,-5.464,-16.735,2.87,-16.199,3.16C-15.53,3.522,-14.719,3.443,-13.962,3.368C-9.84,2.958,-5.678,2.982,-1.561,3.432C1.091,3.723,17.323,12.37,19.913,13.013C20.027,11.381,25.144,6.024,25.714,4.491Z" /></g><g id="path270" transform="matrix(1,0,0,1,1303.848,1035.863)"><path fill="#a1c3fc" fill-opacity="1" d="M22.55,-28.725C21.226,-32.022,16.583,-35.131,13.133,-34.303C9.383,-33.404,8.985,-28.731,9.024,-24.868C9.089,-18.278,9.638,-9.633,9.978,-4.825C10.481,2.283,8.987,9.292,7.654,16.291C7.415,17.581,6.961,18.666,6.374,19.59C-3.322,20.124,-13.155,18.125,-21.846,13.782C-23.778,16.894,-24.912,20.499,-25.109,24.159C-25.148,24.899,-25.135,25.696,-24.712,26.304C-24.233,26.993,-23.361,27.263,-22.553,27.483C-9.906,30.927,1.14,33.396,14.204,34.435C14.6,34.47,14.943,34.272,15.241,33.91C15.481,33.778,15.67,33.596,15.797,33.353C18.691,27.799,20.577,19.86,21.855,12.937C23.257,5.343,23.834,-1.61,24.801,-9.273C25.597,-15.588,24.946,-22.751,22.55,-28.725Z" /></g><g id="path282" transform="matrix(1,0,0,1,1321.389,1021.111)"><path fill="#ffffff" fill-opacity="1" d="M-2.325,-3.473C-2.224,-3.519,-2.171,-3.616,-2.167,-3.715C-2.213,-3.816,-2.31,-3.87,-2.409,-3.873C-2.51,-3.827,-2.564,-3.73,-2.567,-3.631C-2.571,-3.531,-2.425,-3.476,-2.325,-3.473L-2.325,-3.473ZM-4.002,5.613C-3.903,5.617,-3.799,5.522,-3.795,5.422C-3.791,5.323,-3.837,5.221,-3.986,5.215C-4.085,5.212,-4.188,5.307,-4.241,5.404C-4.195,5.506,-4.101,5.61,-4.002,5.613ZM0.842,6.191C0.942,6.194,1.044,6.099,1.048,6C1.052,5.9,0.956,5.798,0.857,5.793C0.758,5.789,0.657,5.835,0.651,5.984C0.648,6.084,0.742,6.187,0.841,6.191L0.842,6.191ZM-4.581,2.509C-4.482,2.512,-4.38,2.418,-4.375,2.318C-4.372,2.219,-4.467,2.116,-4.566,2.112C-4.665,2.109,-4.767,2.204,-4.772,2.303C-4.775,2.403,-4.73,2.504,-4.581,2.509ZM0.269,2.888C0.368,2.892,0.471,2.797,0.475,2.697C0.479,2.598,0.383,2.494,0.284,2.49C0.185,2.487,0.082,2.583,0.078,2.682C0.075,2.782,0.17,2.885,0.269,2.888L0.269,2.888ZM-3.217,-6.19C-3.116,-6.236,-3.063,-6.333,-3.109,-6.434C-3.155,-6.535,-3.253,-6.589,-3.354,-6.543C-3.455,-6.497,-3.508,-6.399,-3.462,-6.298C-3.414,-6.247,-3.318,-6.144,-3.217,-6.19ZM1.456,-7.708C1.557,-7.754,1.61,-7.851,1.564,-7.952C1.518,-8.053,1.42,-8.107,1.319,-8.061C1.218,-8.015,1.165,-7.917,1.211,-7.816C1.208,-7.716,1.355,-7.661,1.456,-7.708ZM-4.682,10.61C-4.585,10.663,-4.483,10.617,-4.43,10.519C-4.377,10.422,-4.423,10.32,-4.521,10.267C-4.617,10.214,-4.719,10.26,-4.772,10.358C-4.823,10.406,-4.779,10.556,-4.682,10.61L-4.682,10.61ZM-0.346,12.809C-0.249,12.862,-0.147,12.816,-0.094,12.718C-0.04,12.621,-0.086,12.519,-0.184,12.466C-0.281,12.413,-0.382,12.459,-0.436,12.557C-0.488,12.654,-0.444,12.756,-0.346,12.809L-0.346,12.809ZM-3.426,-11.269C-3.325,-11.315,-3.273,-11.412,-3.318,-11.513C-3.364,-11.614,-3.461,-11.668,-3.562,-11.622C-3.663,-11.576,-3.716,-11.479,-3.669,-11.427C-3.625,-11.276,-3.527,-11.223,-3.426,-11.269C-3.475,-11.271,-3.426,-11.269,-3.426,-11.269ZM0.59,-12.512C0.691,-12.558,0.743,-12.606,0.697,-12.707C0.651,-12.808,0.554,-12.861,0.503,-12.814C0.402,-12.768,0.348,-12.67,0.394,-12.569C0.394,-12.569,0.491,-12.516,0.59,-12.512L0.59,-12.512ZM-4.847,1.654C-4.75,1.707,-4.649,1.661,-4.597,1.614C-4.544,1.517,-4.59,1.415,-4.687,1.362C-4.784,1.309,-4.886,1.355,-4.939,1.453C-4.991,1.5,-4.945,1.601,-4.847,1.654L-4.847,1.654ZM-1.097,3.583C-1,3.636,-0.898,3.59,-0.845,3.493C-0.792,3.396,-0.838,3.294,-0.935,3.241C-1.032,3.188,-1.134,3.234,-1.187,3.331C-1.24,3.429,-1.196,3.579,-1.097,3.583ZM-4.892,-5.208C-4.793,-5.205,-4.691,-5.25,-4.688,-5.349C-4.685,-5.449,-4.733,-5.501,-4.83,-5.553C-4.929,-5.557,-5.03,-5.512,-5.032,-5.412C-5.038,-5.264,-4.991,-5.212,-4.892,-5.208L-4.892,-5.208ZM-0.687,-4.804C-0.588,-4.801,-0.486,-4.846,-0.484,-4.945C-0.48,-5.044,-0.527,-5.097,-0.624,-5.149C-0.724,-5.153,-0.825,-5.106,-0.828,-5.007C-0.832,-4.908,-0.787,-4.808,-0.687,-4.804ZM3.519,-4.449C3.618,-4.446,3.719,-4.491,3.722,-4.59C3.725,-4.69,3.678,-4.742,3.581,-4.794C3.482,-4.798,3.381,-4.752,3.378,-4.652C3.375,-4.554,3.42,-4.453,3.519,-4.449ZM-4.559,11.31C-4.507,11.263,-4.453,11.115,-4.55,11.062C-4.597,11.011,-4.745,10.955,-4.798,11.052C-4.85,11.1,-4.904,11.248,-4.807,11.301C-4.761,11.402,-4.662,11.406,-4.559,11.31L-4.559,11.31ZM-3.875,-8.551C-3.776,-8.548,-3.673,-8.644,-3.669,-8.743C-3.665,-8.843,-3.76,-8.945,-3.859,-8.95C-3.958,-8.953,-4.061,-8.857,-4.065,-8.758C-4.071,-8.608,-3.973,-8.555,-3.875,-8.551ZM0.842,-8.575C0.942,-8.572,1.044,-8.668,1.048,-8.767C1.052,-8.867,0.956,-8.969,0.857,-8.974C0.758,-8.977,0.655,-8.881,0.651,-8.782C0.648,-8.681,0.744,-8.579,0.842,-8.575L0.842,-8.575ZM5.609,-8.597C5.708,-8.594,5.81,-8.69,5.815,-8.789C5.818,-8.888,5.722,-8.991,5.623,-8.995C5.524,-8.998,5.422,-8.902,5.417,-8.803C5.413,-8.703,5.509,-8.601,5.609,-8.597ZM-4.616,4.795C-4.563,4.698,-4.558,4.598,-4.604,4.497C-4.701,4.444,-4.8,4.441,-4.901,4.487C-4.955,4.584,-4.958,4.683,-4.911,4.735C-4.815,4.838,-4.668,4.843,-4.616,4.795L-4.616,4.795ZM-1.214,8.103C-1.161,8.006,-1.157,7.907,-1.203,7.806C-1.3,7.753,-1.399,7.748,-1.5,7.794C-1.553,7.892,-1.557,7.991,-1.509,8.043C-1.417,8.195,-1.317,8.199,-1.214,8.103L-1.214,8.103ZM-2.803,-2.596C-2.707,-2.542,-2.605,-2.589,-2.552,-2.686C-2.499,-2.783,-2.544,-2.885,-2.642,-2.938C-2.739,-2.991,-2.841,-2.945,-2.894,-2.847C-2.947,-2.75,-2.901,-2.649,-2.803,-2.596L-2.803,-2.596ZM1.597,-0.791C1.694,-0.738,1.795,-0.784,1.849,-0.882C1.902,-0.979,1.856,-1.081,1.758,-1.134C1.661,-1.187,1.56,-1.141,1.506,-1.043C1.454,-0.947,1.499,-0.845,1.597,-0.791ZM5.999,0.963C6.096,1.016,6.198,0.97,6.251,0.872C6.304,0.775,6.258,0.673,6.161,0.62C6.064,0.567,5.962,0.613,5.909,0.711C5.806,0.807,5.9,0.959,5.999,0.963ZM-4.811,-7.393C-4.761,-7.391,-4.712,-7.389,-4.66,-7.437C-4.658,-7.487,-4.656,-7.537,-4.704,-7.589C-4.753,-7.591,-4.803,-7.592,-4.855,-7.544C-4.907,-7.447,-4.86,-7.395,-4.811,-7.393L-4.811,-7.393ZM-2.841,-12.341C-2.792,-12.339,-2.74,-12.387,-2.738,-12.437C-2.736,-12.486,-2.784,-12.538,-2.833,-12.539C-2.883,-12.541,-2.934,-12.493,-2.936,-12.444C-2.99,-12.347,-2.893,-12.294,-2.841,-12.341L-2.841,-12.341ZM-6.09,-2.319C-6.038,-2.366,-6.037,-2.417,-6.084,-2.468C-6.131,-2.519,-6.182,-2.522,-6.233,-2.474C-6.285,-2.427,-6.286,-2.376,-6.239,-2.325C-6.192,-2.274,-6.14,-2.322,-6.09,-2.319Z" /></g></g><g id="path266" transform="matrix(1,0,0,1,1291.815,1036.38)"><path fill="#ffbeb6" fill-opacity="1" d="M-0.296,-3.107C-1.653,-2.811,-5.246,-1.746,-6.647,-1.007C-7.931,-0.329,-9.812,0.886,-9.905,2.337C-10.029,4.268,-6.77,2.44,-5.008,1.784C-1.607,0.518,2.352,0.044,7.639,0.93C8.834,1.13,10.443,0.382,9.735,-0.038C9.027,-0.458,8.538,-1.065,7.179,-1.746C5.577,-2.548,1.508,-3.501,-0.296,-3.107L-0.296,-3.107Z" /></g></g></g></g></g><g transform="matrix(4,0,0,4,769.109,1261.55)" id="4"><g id="4"><path stroke-linejoin="round" stroke-linecap="round" stroke-width="0.8" stroke-opacity="1" stroke="#ff0000" d="M-52.616,-28.114C-51.741,-28.753,-50.731,-29.205,-49.672,-29.431C-48.326,-29.718,-46.926,-29.64,-45.565,-29.431C-42.642,-28.982,-39.844,-27.942,-37.118,-26.796C-33.73,-25.371,-30.415,-23.772,-27.199,-21.992C-23.164,-19.759,-19.284,-17.241,-15.653,-14.398C-10.641,-10.474,-6.13,-5.951,-1.782,-1.302C2.275,3.036,6.204,7.497,10.384,11.717C14.193,15.563,18.223,19.219,22.705,22.255C27.49,25.497,32.828,28.029,38.513,29.075C43.175,29.933,48.021,29.773,52.616,28.61" /></g></g></g></defs><g transform="matrix(0.25,0,0,0.25,0,0)" id="Comp 1"><use clip-path="url(#cp-2320-2360)" height="2360" width="2320" y="0" x="0" xlink:href="#comp_0" href="#comp_0" /></g></svg>